<svg xmlns="http://www.w3.org/2000/svg" viewBox="0 0 1208.72473 843.75982"><title>illu_2</title><path d="M22.47629,533.54429C-7.70658,845.22468,358.62419,854.46223,759.23438,804.65855c249.52758-31.02116,405.90736-119.31214,426.31649-271.11426,33.59882-249.90642-286.69985-402.752-524.52563-261.36708S77.523-34.89008,22.47629,533.54429Z" style="fill:#7995ff"/><path d="M405.20871,157.2456,214.734,171.2207a5,5,0,0,0-4.4075,6.47486l45.00624,144.3508,79.57787,255.23409a5,5,0,0,0,5.41873,3.46992L530.389,556.01193a5,5,0,0,0,4.11766-6.47923L410.3376,160.71114A5,5,0,0,0,405.20871,157.2456Z" style="fill:#fff;stroke:#000;stroke-linecap:round;stroke-linejoin:round;stroke-width:10px"/><path d="M328.91483,273.57336l-4.75606,42.80454a10,10,0,0,0,3.76563,8.97144L356.83,348.03111a10,10,0,0,1,3.73943,6.54807l10.88022,81.76487a10,10,0,0,0,7.92915,8.48227l43.88,8.87989a10,10,0,0,0,11.60537-7.07752l13.8062-48.771a10,10,0,0,0-.13788-5.89448l-37.15653-111.141a10,10,0,0,0-8.02219-6.72189L340.3155,264.7851A10,10,0,0,0,328.91483,273.57336Z" style="fill:#ff7e79;stroke:#000;stroke-linecap:round;stroke-linejoin:round;stroke-width:7.637187242507935px"/><polygon points="208.762 172.275 190.318 179.795 313.119 587.758 336.162 581.293 208.762 172.275" style="fill:#fff;stroke:#000;stroke-linecap:round;stroke-linejoin:round;stroke-width:10px"/><polygon points="533.507 554.533 336.162 581.293 313.119 587.758 517.715 562.346 533.507 554.533" style="fill:#fff;stroke:#000;stroke-linecap:round;stroke-linejoin:round;stroke-width:10px"/><path d="M713.6472,159.58329l193.58221,96.7911a20,20,0,0,1,9.332,9.76578l92.61545,208.38476a20,20,0,0,1-1.63523,19.21677l-37.95706,56.93559a20,20,0,0,1-16.641,8.906H763.6472l100-50h-50l-50-50-125-125v-125Z" style="fill:#ff8d5f;stroke:#000;stroke-linecap:round;stroke-linejoin:round;stroke-width:10px"/><polygon points="913.647 559.583 763.647 559.583 863.647 509.583 913.647 559.583" style="stroke:#000;stroke-linecap:round;stroke-linejoin:round;stroke-width:10px"/><path d="M563.6472,109.58329,607.44244,21.9928a10,10,0,0,1,16.01534-2.59893L663.6472,59.58329Z" style="fill:#fff;stroke:#000;stroke-miterlimit:10;stroke-width:10px"/><polyline points="613.647 259.583 613.647 559.583 713.647 359.583" style="fill:#ff8d5f;stroke:#000;stroke-linecap:round;stroke-linejoin:round;stroke-width:10px"/><path d="M665.08446,456.70872a114.51022,114.51022,0,0,0-51.43726-12.12543v115Z" style="stroke:#000;stroke-linecap:round;stroke-linejoin:round;stroke-width:10px"/><polyline points="688.647 259.583 688.647 559.583 788.647 359.583" style="fill:#ff8d5f;stroke:#000;stroke-linecap:round;stroke-linejoin:round;stroke-width:10px"/><path d="M740.08446,456.70872a114.51022,114.51022,0,0,0-51.43726-12.12543v115Z" style="stroke:#000;stroke-linecap:round;stroke-linejoin:round;stroke-width:10px"/><path d="M783.6472,264.58329,767.5385,280.692a7.63517,7.63517,0,0,1-8.81344,1.43023L735.236,270.37769a7.63518,7.63518,0,0,0-8.81344,1.43023L717.5385,280.692a7.63517,7.63517,0,0,1-8.81344,1.43023l-6.82238-3.41119a7.63518,7.63518,0,0,0-8.81344,1.43022L667.5385,305.692a7.63517,7.63517,0,0,1-8.81344,1.43023L471.32874,213.42406A6.19,6.19,0,0,1,469.72,203.5105L653.83662,19.39387A10,10,0,0,1,669.852,21.9928L763.6472,209.58329" style="fill:#ff8d5f;stroke:#000;stroke-linecap:round;stroke-linejoin:round;stroke-width:10px"/><path d="M938.6472,459.58329l-10-10-33.03143-33.03142a23.79216,23.79216,0,0,0-16.8236-6.96856H849.89683a18.20228,18.20228,0,0,0-16.28062,10.062l-41.74568,83.49136a10,10,0,0,0,1.87321,11.54321l41.97453,41.97453a10,10,0,0,0,7.07107,2.92893H928.6472" style="fill:#ff8d5f;stroke:#000;stroke-linecap:round;stroke-linejoin:round;stroke-width:10px"/><path d="M891.87053,478.13662,910.42387,441.03a10,10,0,0,0-1.87321-11.54321l-12.9349-12.9349a23.79216,23.79216,0,0,0-16.8236-6.96856H849.89683a18.20228,18.20228,0,0,0-16.28062,10.062l-41.74568,83.49136a10,10,0,0,0,1.87321,11.54321l34.54107,34.54107a35.37941,35.37941,0,0,0,25.017,10.36239h29.165a10,10,0,0,0,8.94427-5.52787L910.42387,516.03a10,10,0,0,0-1.87321-11.54321l-14.80692-14.80692A10,10,0,0,1,891.87053,478.13662Z" style="fill:#fff;stroke:#000;stroke-linecap:round;stroke-linejoin:round;stroke-width:10px"/><path d="M494.951,225.23521a34.99564,34.99564,0,0,0-6.55511-40.40064L469.72,203.5105a6.19,6.19,0,0,0,1.60875,9.91356Z" style="stroke:#000;stroke-linecap:round;stroke-linejoin:round;stroke-width:10px"/><circle cx="598.6472" cy="149.58329" r="10"/><path d="M588.6472,84.58329l63.27363-21.09121a20,20,0,0,1,20.46669,4.83153l41.25968,41.25968L669.852,21.9928a10,10,0,0,0-16.01534-2.59893Z" style="fill:#fff;stroke:#000;stroke-miterlimit:10;stroke-width:10px"/><path d="M898.6472,464.58329l9.827-19.65391a8.33724,8.33724,0,0,1,13.35236-2.16679l11.82069,11.8207" style="fill:#ff8d5f;stroke:#000;stroke-linecap:round;stroke-linejoin:round;stroke-width:10px"/><path d="M918.80675,559.58329l-14.82979.13778a9.7208,9.7208,0,0,1-8.64942-14.32858l5.81966-10.8092" style="fill:#ff8d5f;stroke:#000;stroke-linecap:round;stroke-linejoin:round;stroke-width:10px"/><polygon points="564.499 260.009 473.647 359.583 463.647 349.583 564.499 260.009" style="stroke:#000;stroke-linecap:round;stroke-linejoin:round;stroke-width:10px"/><polygon points="466.01 349.583 443.098 357.22 443.098 376.313 427.824 395.406 473.647 383.951 473.647 357.22 466.01 349.583" style="fill:#ff7e79;stroke:#000;stroke-linecap:round;stroke-linejoin:round;stroke-width:7.637187242507935px"/></svg>