<svg xmlns="http://www.w3.org/2000/svg" width="24" height="24" viewBox="0 0 24 24">
  <g fill="none" transform="translate(3 3)">
    <path fill="#000000" d="M0,15 C0,15.55 0.45,16 1,16 L6,16 L6,14 L1,14 C0.45,14 0,14.45 0,15 Z M0,3 C0,3.55 0.45,4 1,4 L10,4 L10,2 L1,2 C0.45,2 0,2.45 0,3 Z M18,9 C18,8.45 17.55,8 17,8 L8,8 L8,10 L17,10 C17.55,10 18,9.55 18,9 Z"/>
    <path fill="#FF8D5F" fill-opacity=".5" d="M10,17 C10,17.55 9.55,18 9,18 C8.45,18 8,17.55 8,17 L8,13 C8,12.45 8.45,12 9,12 C9.55,12 10,12.45 10,13 L10,14 L17,14 C17.55,14 18,14.45 18,15 C18,15.55 17.55,16 17,16 L10,16 L10,17 Z M4,7 C4,6.45 4.45,6 5,6 C5.55,6 6,6.45 6,7 L6,11 C6,11.55 5.55,12 5,12 C4.45,12 4,11.55 4,11 L4,10 L1,10 C0.45,10 0,9.55 0,9 C0,8.45 0.45,8 1,8 L4,8 L4,7 Z M13,6 C12.45,6 12,5.55 12,5 L12,1 C12,0.45 12.45,0 13,0 C13.55,0 14,0.45 14,1 L14,2 L17,2 C17.55,2 18,2.45 18,3 C18,3.55 17.55,4 17,4 L14,4 L14,5 C14,5.55 13.55,6 13,6 Z"/>
  </g>
</svg>
