<svg xmlns="http://www.w3.org/2000/svg" width="24" height="24" viewBox="0 0 24 24">
  <g fill="none" transform="translate(3 5)">
    <path fill="#000000" d="M9.30805446,12.38 L8.40805446,10 L2.76805446,10 L1.87805446,12.37 C1.73805446,12.75 1.37805446,13 0.968054463,13 C0.288054463,13 -0.181945537,12.31 0.0680544627,11.68 L4.31805446,0.87 C4.53805446,0.34 5.03805446,0 5.59805446,0 C6.15805446,0 6.65805446,0.34 6.86805446,0.87 L11.1180545,11.68 C11.3680545,12.31 10.8980545,13 10.2180545,13 C9.81805446,13 9.45805446,12.75 9.30805446,12.38 Z M3.52805446,8 L7.66805446,8 L5.59805446,2.48 L3.52805446,8 Z"/>
    <path fill="#FF8D5F" fill-opacity=".5" d="M7.51486297,8 L7.59326897,7.80057203 L10.3180545,0.87 C10.5380545,0.34 11.0380545,0 11.5980545,0 C12.1580545,0 12.6580545,0.34 12.8680545,0.87 L17.1180545,11.68 C17.3680545,12.31 16.8980545,13 16.2180545,13 C15.8180545,13 15.4580545,12.75 15.3080545,12.38 L14.4080545,10 L8.76805446,10 L7.87805446,12.37 C7.73805446,12.75 7.37805446,13 6.96805446,13 C6.28805446,13 5.81805446,12.31 6.06805446,11.68 L7.51486297,8 Z M9.52805446,8 L13.6680545,8 L11.5980545,2.48 L9.52805446,8 Z"/>
  </g>
</svg>
