<svg xmlns="http://www.w3.org/2000/svg" width="24" height="24" viewBox="0 0 24 24">
  <g fill="none" transform="translate(5 3)">
    <path fill="#000000" d="M1,16 L1,6 C1,4.9 1.9,4 3,4 L11,4 C12.1,4 13,4.9 13,6 L13,16 C13,17.1 12.1,18 11,18 L3,18 C1.9,18 1,17.1 1,16 Z M7,7 C6.44771525,7 6,7.44771525 6,8 L6,14 C6,14.5522847 6.44771525,15 7,15 C7.55228475,15 8,14.5522847 8,14 L8,8 C8,7.44771525 7.55228475,7 7,7 Z M10.5,7 C10.2238576,7 10,7.22385763 10,7.5 L10,14.5 C10,14.7761424 10.2238576,15 10.5,15 C10.7761424,15 11,14.7761424 11,14.5 L11,7.5 C11,7.22385763 10.7761424,7 10.5,7 Z M3.5,7 C3.22385763,7 3,7.22385763 3,7.5 L3,14.5 C3,14.7761424 3.22385763,15 3.5,15 C3.77614237,15 4,14.7761424 4,14.5 L4,7.5 C4,7.22385763 3.77614237,7 3.5,7 Z M13,1 C13.55,1 14,1.45 14,2 C14,2.55 13.55,3 13,3 L1,3 C0.45,3 0,2.55 0,2 C0,1.45 0.45,1 1,1 L3.5,1 L4.21,0.29 C4.39,0.11 4.65,0 4.91,0 L9.09,0 C9.35,0 9.61,0.11 9.79,0.29 L10.5,1 L13,1 Z"/>
    <path fill="#FF8D5F" fill-opacity=".5" d="M7,7 C7.55228475,7 8,7.44771525 8,8 L8,14 C8,14.5522847 7.55228475,15 7,15 C6.44771525,15 6,14.5522847 6,14 L6,8 C6,7.44771525 6.44771525,7 7,7 Z M10.5,7 C10.7761424,7 11,7.22385763 11,7.5 L11,14.5 C11,14.7761424 10.7761424,15 10.5,15 C10.2238576,15 10,14.7761424 10,14.5 L10,7.5 C10,7.22385763 10.2238576,7 10.5,7 Z M3.5,7 C3.77614237,7 4,7.22385763 4,7.5 L4,14.5 C4,14.7761424 3.77614237,15 3.5,15 C3.22385763,15 3,14.7761424 3,14.5 L3,7.5 C3,7.22385763 3.22385763,7 3.5,7 Z"/>
  </g>
</svg>
