<svg xmlns="http://www.w3.org/2000/svg" width="24" height="24" viewBox="0 0 24 24">
  <g fill="none" fill-rule="evenodd">
    <polygon points="0 0 24 0 24 24 0 24"/>
    <path fill="#000000" fill-rule="nonzero" d="M8,5 L13.1715729,5 C13.7020059,5 14.2107137,5.21071368 14.5857864,5.58578644 L20.4142136,11.4142136 C20.7892863,11.7892863 21,12.2979941 21,12.8284271 L21,21 C21,22.1045695 20.1045695,23 19,23 L8,23 C6.8954305,23 6,22.1045695 6,21 L6,7 C6,5.8954305 6.8954305,5 8,5 Z M14,7.82842712 L14,12 L18.1715729,12 L14,7.82842712 Z M12,7 L8,7 L8,21 L19,21 L19,14 L14,14 C12.8954305,14 12,13.1045695 12,12 L12,7 Z M15,1 C15.55,1 16,1.45 16,2 C16,2.55 15.55,3 15,3 L5,3 C4.45,3 4,3.45 4,4 L4,16 C4,16.55 3.55,17 3,17 C2.45,17 2,16.55 2,16 L2,3 C2,1.9 2.9,1 4,1 L15,1 Z"/>
    <path fill="#FF8D5F" fill-opacity=".5" fill-rule="nonzero" d="M12,7 L8,7 L8,21 L19,21 L19,14 L14,14 C12.8954305,14 12,13.1045695 12,12 L12,7 Z"/>
  </g>
</svg>
