<svg xmlns="http://www.w3.org/2000/svg" width="24" height="24" viewBox="0 0 24 24">
  <g fill="none" transform="translate(2 3)">
    <path fill="#000000" d="M9,17 L18,17 C18.55,17 19,16.55 19,16 C19,15.45 18.55,15 18,15 L9,15 C8.45,15 8,15.45 8,16 C8,16.55 8.45,17 9,17 Z M9,14 L18,14 C18.55,14 19,13.55 19,13 C19,12.45 18.55,12 18,12 L9,12 C8.45,12 8,12.45 8,13 C8,13.55 8.45,14 9,14 Z M9,6 L18,6 C18.55,6 19,5.55 19,5 C19,4.45 18.55,4 18,4 L9,4 C8.45,4 8,4.45 8,5 C8,5.55 8.45,6 9,6 Z M8,2 C8,2.55 8.45,3 9,3 L18,3 C18.55,3 19,2.55 19,2 C19,1.45 18.55,1 18,1 L9,1 C8.45,1 8,1.45 8,2 Z"/>
    <path fill="#FF8D5F" fill-opacity=".5" d="M5.29,4 C5.74,4 5.96,3.46 5.64,3.15 L3.35,0.85 C3.15,0.65 2.84,0.65 2.64,0.85 L0.35,3.15 C0.04,3.46 0.26,4 0.71,4 L2,4 L2,14 L0.71,14 C0.26,14 0.04,14.54 0.36,14.85 L2.65,17.14 C2.85,17.34 3.16,17.34 3.36,17.14 L5.65,14.85 C5.96,14.54 5.74,14 5.29,14 L4,14 L4,4 L5.29,4 Z"/>
  </g>
</svg>
