<svg xmlns="http://www.w3.org/2000/svg" width="24" height="24" viewBox="0 0 24 24">
  <g fill="none" fill-rule="evenodd">
    <path fill="#FF8D5F" fill-opacity=".5" fill-rule="nonzero" d="M13.4142136,17.5857864 L18.4142136,12.5857864 C18.7892863,12.2107137 19.2979941,12 19.8284271,12 L20,12 L20,19 L4,19 L4,12 L4.17157288,12 C4.70200585,12 5.21071368,12.2107137 5.58578644,12.5857864 L10.5857864,17.5857864 C11.366835,18.366835 12.633165,18.366835 13.4142136,17.5857864 Z"/>
    <path fill="#000000" fill-rule="nonzero" d="M19,13 L19,18 C19,18.55 18.55,19 18,19 L6,19 C5.45,19 5,18.55 5,18 L5,13 C5,12.45 4.55,12 4,12 C3.45,12 3,12.45 3,13 L3,19 C3,20.1 3.9,21 5,21 L19,21 C20.1,21 21,20.1 21,19 L21,13 C21,12.45 20.55,12 20,12 C19.45,12 19,12.45 19,13 Z M13,12.67 L14.88,10.79 C15.27,10.4 15.9,10.4 16.29,10.79 C16.68,11.18 16.68,11.81 16.29,12.2 L12.7,15.79 C12.31,16.18 11.68,16.18 11.29,15.79 L7.7,12.2 C7.31,11.81 7.31,11.18 7.7,10.79 C8.09,10.4 8.72,10.4 9.11,10.79 L11,12.67 L11,4 C11,3.45 11.45,3 12,3 C12.55,3 13,3.45 13,4 L13,12.67 Z"/>
  </g>
</svg>
