<svg xmlns="http://www.w3.org/2000/svg" width="24" height="24" viewBox="0 0 24 24">
  <g fill="none" transform="translate(2 2)">
    <polygon fill="#FF8D5F" fill-opacity=".5" points="2 2 2 18 18 18 18 2"/>
    <path fill="#000000" d="M18,0 L2,0 C0.9,0 0,0.9 0,2 L0,18 C0,19.1 0.9,20 2,20 L18,20 C19.1,20 20,19.1 20,18 L20,2 C20,0.9 19.1,0 18,0 Z M2,2 L18,2 L18,18 L2,18 L2,2 Z M13.71,15.88 C13.86,16.25 14.22,16.5 14.62,16.5 C15.3,16.5 15.77,15.81 15.52,15.18 L11.27,4.37 C11.06,3.84 10.56,3.5 10,3.5 C9.44,3.5 8.94,3.84 8.72,4.37 L4.47,15.18 C4.22,15.81 4.69,16.5 5.37,16.5 C5.78,16.5 6.14,16.25 6.28,15.87 L7.17,13.5 L12.81,13.5 L13.71,15.88 Z M7.93,11.5 L10,5.98 L12.07,11.5 L7.93,11.5 Z"/>
  </g>
</svg>
