<svg xmlns="http://www.w3.org/2000/svg" width="24" height="24" viewBox="0 0 24 24">
  <g fill="none" transform="translate(2 2)">
    <path fill="#FF8D5F" fill-opacity=".5" d="M16.9467849,13.9453051 L12.7167423,9.71249951 C13.2068774,9.11047473 13.5,8.34093819 13.5,7.5 C13.5,5.56 11.94,4 10,4 C9.15988788,4 8.3910372,4.292547 7.78927512,4.78181384 L6.05257171,3.04397607 C7.218105,2.37975926 8.56568167,2 10,2 C14.41,2 18,5.59 18,10 C18,11.4384176 17.6127255,12.7831398 16.9467849,13.9453051 Z M13.1973098,13.0143018 C11.9665536,12.6479853 10.7312,12.5 10,12.5 C8.54,12.5 5.07,13.09 3.64,14.83 C2.62,13.49 2,11.82 2,10 C2,7.74712439 2.93689667,5.70824746 4.44139314,4.25266609 L6.65372446,6.46644244 C6.55375762,6.79283455 6.5,7.13986987 6.5,7.5 C6.5,9.44 8.06,11 10,11 C10.359325,11 10.7056136,10.9464825 11.031368,10.8469454 L13.1973098,13.0143018 Z"/>
    <path fill="#000000" d="M18.4102926,15.4097687 L16.9467849,13.9453051 C17.6127255,12.7831398 18,11.4384176 18,10 C18,5.59 14.41,2 10,2 C8.56568167,2 7.218105,2.37975926 6.05257171,3.04397607 L4.59571862,1.58617141 C6.15441056,0.582481891 8.00959578,0 10,0 C15.52,0 20,4.48 20,10 C20,11.9927404 19.4161499,13.8499443 18.4102926,15.4097687 Z M2.47477855,2.28433304 C2.48059341,2.29044432 2.48650056,2.29650056 2.4925,2.3025 L17.8025,17.6225 C17.8426992,17.6626992 17.8854482,17.6987548 17.9302215,17.730667 C18.3024077,18.121826 18.2965006,18.7384994 17.9125,19.1225 C17.5225,19.5125 16.8925,19.5125 16.5025,19.1225 L15.6387266,18.2581624 C14.033096,19.3570438 12.0911769,20 10,20 C4.48,20 0,15.52 0,10 C0,7.90648438 0.644395162,5.96256049 1.7455263,4.35588752 L1.1925,3.8025 C0.8025,3.4125 0.8025,2.7825 1.1925,2.3925 C1.54230083,2.04269917 2.0851756,2.00664352 2.47477855,2.28433304 Z M7.78927512,4.78181384 C8.3910372,4.292547 9.15988788,4 10,4 C11.94,4 13.5,5.56 13.5,7.5 C13.5,8.34093819 13.2068774,9.11047473 12.7167423,9.71249951 L11.2833857,8.27820668 C11.420899,8.05148661 11.5,7.7851882 11.5,7.5 C11.5,6.67 10.83,6 10,6 C9.71516313,6 9.44916953,6.07890618 9.2226314,6.21610634 L7.78927512,4.78181384 Z M12.1851646,14.8023446 C11.4516914,14.6141794 10.6771897,14.5 10,14.5 C8.12,14.5 5.5,15.38 5.07,16.28 C6.43,17.36 8.14,18 10,18 C11.5350434,18 12.9679208,17.5640914 14.1862096,16.8046967 L12.1851646,14.8023446 Z M9.88546269,12.5011407 L3.19204239,5.80334843 C2.43649305,7.02424074 2,8.46227019 2,10 C2,11.82 2.62,13.49 3.64,14.83 C5.03384266,13.1339956 8.36582734,12.5305713 9.88546269,12.5011407 Z"/>
  </g>
</svg>
