<svg xmlns="http://www.w3.org/2000/svg" width="24" height="24" viewBox="0 0 24 24">
  <g fill="none" fill-rule="evenodd">
    <rect width="18" height="14" x="3" y="5" fill="#FF8D5F" fill-opacity=".5" fill-rule="nonzero"/>
    <path fill="#000000" fill-rule="nonzero" d="M20,4 C21.1,4 22,4.9 22,6 L22,18 C22,19.1 21.1,20 20,20 L4,20 C2.9,20 2,19.1 2,18 L2.01,6 C2.01,4.9 2.9,4 4,4 L20,4 Z M19,18 C19.55,18 20,17.55 20,17 L20,8 L13.06,12.34 C12.41,12.75 11.59,12.75 10.94,12.34 L4,8 L4,17 C4,17.55 4.45,18 5,18 L19,18 Z M12,11 L20,6 L4,6 L12,11 Z"/>
  </g>
</svg>
