<svg xmlns="http://www.w3.org/2000/svg" width="24" height="24" viewBox="0 0 24 24">
  <g fill="none" transform="translate(1 1)">
    <rect width="18" height="18" x="2" y="2" fill="#FF8D5F" fill-opacity=".5"/>
    <path fill="#000000" d="M22,5 L22,1 C22,0.45 21.55,0 21,0 L17,0 C16.45,0 16,0.45 16,1 L16,2 L6,2 L6,1 C6,0.45 5.55,0 5,0 L1,0 C0.45,0 0,0.45 0,1 L0,5 C0,5.55 0.45,6 1,6 L2,6 L2,16 L1,16 C0.45,16 0,16.45 0,17 L0,21 C0,21.55 0.45,22 1,22 L5,22 C5.55,22 6,21.55 6,21 L6,20 L16,20 L16,21 C16,21.55 16.45,22 17,22 L21,22 C21.55,22 22,21.55 22,21 L22,17 C22,16.45 21.55,16 21,16 L20,16 L20,6 L21,6 C21.55,6 22,5.55 22,5 Z M2,2 L4,2 L4,4 L2,4 L2,2 Z M4,20 L2,20 L2,18 L4,18 L4,20 Z M16,18 L6,18 L6,17 C6,16.45 5.55,16 5,16 L4,16 L4,6 L5,6 C5.55,6 6,5.55 6,5 L6,4 L16,4 L16,5 C16,5.55 16.45,6 17,6 L18,6 L18,16 L17,16 C16.45,16 16,16.45 16,17 L16,18 Z M20,20 L18,20 L18,18 L20,18 L20,20 Z M18,4 L18,2 L20,2 L20,4 L18,4 Z M11.94,6.65 C11.79,6.26 11.41,6 10.99,6 C10.57,6 10.19,6.26 10.05,6.65 L7.28,13.98 C7.09,14.47 7.45,15 7.98,15 C8.3,15 8.58,14.8 8.69,14.5 L9.24,13 L12.73,13 L13.29,14.51 C13.4,14.8 13.68,15 14,15 L14.01,15 C14.54,15 14.9,14.47 14.72,13.98 L11.94,6.65 Z M9.69,11.74 L11,7.91 L12.3,11.74 L9.69,11.74 Z"/>
  </g>
</svg>
