<svg xmlns="http://www.w3.org/2000/svg" width="24" height="24" viewBox="0 0 24 24">
  <path fill="#000000" d="M5,2.83 L7.46,5.29 C7.85,5.68 8.48,5.68 8.87,5.29 C9.26,4.9 9.26,4.27 8.87,3.88 L5.7,0.7 C5.31,0.31 4.68,0.31 4.29,0.7 L1.12,3.88 C0.73,4.27 0.73,4.9 1.12,5.29 C1.51,5.68 2.14,5.68 2.53,5.29 L5,2.83 Z M5,15.17 L2.54,12.71 C2.15,12.32 1.52,12.32 1.13,12.71 C0.74,13.1 0.74,13.73 1.13,14.12 L4.3,17.3 C4.69,17.69 5.32,17.69 5.71,17.3 L8.88,14.13 C9.27,13.74 9.27,13.11 8.88,12.72 C8.49,12.33 7.86,12.33 7.47,12.72 L5,15.17 Z" transform="translate(7 3)"/>
</svg>
