<svg xmlns="http://www.w3.org/2000/svg" width="24" height="24" viewBox="0 0 24 24">
  <g fill="none" transform="translate(2 2)">
    <path fill="#FF8D5F" fill-opacity=".5" d="M10,2 C5.59,2 2,5.59 2,10 C2,14.41 5.59,18 10,18 C10.28,18 10.5,17.78 10.5,17.5 C10.5,17.34 10.42,17.22 10.36,17.15 C9.95,16.69 9.73,16.1 9.73,15.5 C9.73,14.12 10.85,13 12.23,13 L14,13 C16.21,13 18,11.21 18,9 C18,5.14 14.41,2 10,2 Z M4.5,11 C3.67,11 3,10.33 3,9.5 C3,8.67 3.67,8 4.5,8 C5.33,8 6,8.67 6,9.5 C6,10.33 5.33,11 4.5,11 Z M7.5,7 C6.67,7 6,6.33 6,5.5 C6,4.67 6.67,4 7.5,4 C8.33,4 9,4.67 9,5.5 C9,6.33 8.33,7 7.5,7 Z M12.5,7 C11.67,7 11,6.33 11,5.5 C11,4.67 11.67,4 12.5,4 C13.33,4 14,4.67 14,5.5 C14,6.33 13.33,7 12.5,7 Z M17,9.5 C17,10.33 16.33,11 15.5,11 C14.67,11 14,10.33 14,9.5 C14,8.67 14.67,8 15.5,8 C16.33,8 17,8.67 17,9.5 Z"/>
    <path fill="#000000" d="M10,0 C15.51,0 20,4.04 20,9 C20,12.31 17.31,15 14,15 L12.23,15 C11.95,15 11.73,15.22 11.73,15.5 C11.73,15.62 11.78,15.74 11.86,15.83 C12.27,16.29 12.5,16.89 12.5,17.5 C12.5,18.88 11.38,20 10,20 C4.49,20 0,15.51 0,10 C0,4.49 4.49,0 10,0 Z M14,13 C16.21,13 18,11.21 18,9 C18,5.14 14.41,2 10,2 C5.59,2 2,5.59 2,10 C2,14.41 5.59,18 10,18 C10.28,18 10.5,17.78 10.5,17.5 C10.5,17.34 10.42,17.22 10.36,17.15 C9.95,16.69 9.73,16.11 9.73,15.5 C9.73,14.12 10.85,13 12.23,13 L14,13 Z M4.5,11 C3.67157288,11 3,10.3284271 3,9.5 C3,8.67157288 3.67157288,8 4.5,8 C5.32842712,8 6,8.67157288 6,9.5 C6,10.3284271 5.32842712,11 4.5,11 Z M7.5,7 C6.67157288,7 6,6.32842712 6,5.5 C6,4.67157288 6.67157288,4 7.5,4 C8.32842712,4 9,4.67157288 9,5.5 C9,6.32842712 8.32842712,7 7.5,7 Z M12.5,7 C11.6715729,7 11,6.32842712 11,5.5 C11,4.67157288 11.6715729,4 12.5,4 C13.3284271,4 14,4.67157288 14,5.5 C14,6.32842712 13.3284271,7 12.5,7 Z M15.5,11 C14.6715729,11 14,10.3284271 14,9.5 C14,8.67157288 14.6715729,8 15.5,8 C16.3284271,8 17,8.67157288 17,9.5 C17,10.3284271 16.3284271,11 15.5,11 Z"/>
  </g>
</svg>
