<svg xmlns="http://www.w3.org/2000/svg" width="24" height="24" viewBox="0 0 24 24">
  <path fill="#000000" d="M13.79,7.71 C14.3,7.2 15.16,7.38 15.43,8.05 C15.8,8.96 16,9.96 16,11 C16,15.42 12.42,19 8,19 L8,20.8 C8,21.24 7.46,21.46 7.15,21.15 L4.36,18.36 C4.16,18.16 4.16,17.85 4.36,17.65 L7.15,14.86 C7.46,14.54 8,14.76 8,15.21 L8,17 C11.31,17 14,14.31 14,11 C14,10.21 13.84,9.45 13.56,8.75 C13.41,8.4 13.52,7.98 13.79,7.71 Z M8,5 C4.69,5 2,7.69 2,11 C2,11.79 2.15,12.56 2.44,13.25 C2.59,13.61 2.48,14.02 2.21,14.29 C1.7,14.8 0.84,14.62 0.57,13.95 C0.2,13.04 8.8817842e-16,12.04 8.8817842e-16,11 C8.8817842e-16,6.58 3.58,3 8,3 L8,1.21 C8,0.76 8.54,0.54 8.85,0.85 L11.64,3.64 C11.84,3.84 11.84,4.15 11.64,4.35 L8.85,7.14 C8.54,7.46 8,7.24 8,6.79 L8,5 Z" transform="translate(4 1)"/>
</svg>
