<svg xmlns="http://www.w3.org/2000/svg" width="24" height="24" viewBox="0 0 24 24">
  <path fill="#FF8D5F" d="M11,14.01 L11,8 C11,7.45 10.55,7 10,7 C9.45,7 9,7.45 9,8 L9,14.01 L7.21,14.01 C6.76,14.01 6.54,14.55 6.86,14.86 L9.65,17.64 C9.85,17.83 10.16,17.83 10.36,17.64 L13.15,14.86 C13.47,14.55 13.24,14.01 12.8,14.01 L11,14.01 Z M3.65,0.35 L0.86,3.14 C0.54,3.45 0.76,3.99 1.21,3.99 L3,3.99 L3,10 C3,10.55 3.45,11 4,11 C4.55,11 5,10.55 5,10 L5,3.99 L6.79,3.99 C7.24,3.99 7.46,3.45 7.14,3.14 L4.35,0.35 C4.16,0.16 3.84,0.16 3.65,0.35 Z" transform="translate(5 3)"/>
</svg>
