<svg xmlns="http://www.w3.org/2000/svg" width="24" height="24" viewBox="0 0 24 24">
  <g fill="none" transform="translate(3 4)">
    <path fill="#000000" d="M6,1.5 C6,2.33 6.67,3 7.5,3 L11,3 L11,13.5 C11,14.33 11.67,15 12.5,15 C13.33,15 14,14.33 14,13.5 L14,3 L17.5,3 C18.33,3 19,2.33 19,1.5 C19,0.67 18.33,0 17.5,0 L7.5,0 C6.67,0 6,0.67 6,1.5 Z"/>
    <path fill="#FF8D5F" fill-opacity=".5" d="M1.5,8 L3,8 L3,13.5 C3,14.33 3.67,15 4.5,15 C5.33,15 6,14.33 6,13.5 L6,8 L7.5,8 C8.33,8 9,7.33 9,6.5 C9,5.67 8.33,5 7.5,5 L1.5,5 C0.67,5 0,5.67 0,6.5 C0,7.33 0.67,8 1.5,8 Z"/>
  </g>
</svg>
