<svg xmlns="http://www.w3.org/2000/svg" width="24" height="24" viewBox="0 0 24 24">
  <g fill="none" transform="translate(5 4)">
    <path fill="#000000" d="M4.5,8.8 L9.5,8.8 L10.16,10.4 C10.31,10.76 10.66,11 11.05,11 C11.74,11 12.2,10.29 11.93,9.66 L8.05,0.69 C7.87,0.27 7.46,0 7,0 C6.54,0 6.13,0.27 5.95,0.69 L2.07,9.66 C1.8,10.29 2.27,11 2.96,11 C3.35,11 3.7,10.76 3.85,10.4 L4.5,8.8 Z M7,1.98 L8.87,7 L5.13,7 L7,1.98 Z"/>
    <path fill="#FF8D5F" fill-opacity=".5" d="M0,14 C0,14.55 0.45,15 1,15 L13,15 C13.55,15 14,14.55 14,14 C14,13.45 13.55,13 13,13 L1,13 C0.45,13 0,13.45 0,14 Z"/>
  </g>
</svg>
