<svg xmlns="http://www.w3.org/2000/svg" width="24" height="24" viewBox="0 0 24 24">
  <g fill="none" fill-rule="evenodd">
    <path fill="#FF8D5F" fill-opacity=".5" fill-rule="nonzero" d="M12 10C13.1054305 10 14 9.1054305 14 8 14 6.8945695 13.1054305 6 12 6 10.8945695 6 10 6.8945695 10 8 10 9.1054305 10.8945695 10 12 10zM6 18L18 18C18 17.342215 14.6494894 16 12 16 9.35051057 16 6 17.342215 6 18z"/>
    <path fill="#000000" fill-rule="nonzero" d="M12,14 C14.67,14 20,15.34 20,18 L20,19 C20,19.55 19.55,20 19,20 L5,20 C4.45,20 4,19.55 4,19 L4,18 C4,15.34 9.33,14 12,14 Z M12,12 C9.79,12 8,10.21 8,8 C8,5.79 9.79,4 12,4 C14.21,4 16,5.79 16,8 C16,10.21 14.21,12 12,12 Z M12,10 C13.1054305,10 14,9.1054305 14,8 C14,6.8945695 13.1054305,6 12,6 C10.8945695,6 10,6.8945695 10,8 C10,9.1054305 10.8945695,10 12,10 Z M6,18 L18,18 C18,17.342215 14.6494894,16 12,16 C9.35051057,16 6,17.342215 6,18 Z"/>
  </g>
</svg>
