<svg xmlns="http://www.w3.org/2000/svg" xmlns:xlink="http://www.w3.org/1999/xlink" viewBox="0 0 746.69472 439.61697"><defs><clipPath id="a"><path d="M579.96706,359.87369l-42.54541-85.09082v85.09082L477.85808,240.74655l-60.46192,30.23093a17.01787,17.01787,0,0,1-15.22146,0l-60.46192-30.23093-15.22152,30.443a17.018,17.018,0,0,0-1.79664,7.61073v81.07338l-42.5454-85.09082v85.09082l-40.74871-81.49752a17.01864,17.01864,0,0,1-1.7967-7.61073v-38.528L158.1064,272.98622a17.01865,17.01865,0,0,1-7.611,1.79665H79.93987a17.01832,17.01832,0,0,1-15.22153-9.40742l-42.5454-85.09082a8.509,8.509,0,0,1,3.80569-11.41611L61.81126,150.952a17.01883,17.01883,0,0,1,15.22185,0l69.869,34.93464a17.01883,17.01883,0,0,0,15.22185,0l154.48577-77.24293a38.29077,38.29077,0,0,1,17.12418-4.0425H487.82711a17.01817,17.01817,0,0,0,12.03363-4.98449l77.09789-77.0979a4.25455,4.25455,0,0,1,6.01685,0l39.537,39.537,77.48006,38.74a4.25455,4.25455,0,0,1,0,7.61076l-75.01,37.505a17.01867,17.01867,0,0,0-4.42289,3.18784l-35.60812,35.60813a17.01819,17.01819,0,0,0-4.98449,12.03362Z" style="fill:none"/></clipPath><clipPath id="b"><rect x="14.11316" y="15.2559" width="693.49011" height="357.38141" style="fill:none"/></clipPath><clipPath id="d"><path d="M133.2403,274.78287h-10.755a17.0183,17.0183,0,0,1-15.22152-9.40742l-3.80524-7.61074,2.35189,4.70369a8.509,8.509,0,0,1-7.61092,12.31447H133.2403Z" style="fill:none"/></clipPath><clipPath id="g"><path d="M97.78594,161.32844,77.03311,150.952a17.01883,17.01883,0,0,0-15.22185,0L25.97863,168.86852a8.509,8.509,0,0,0-3.80569,11.41611l42.5454,85.09082a17.01832,17.01832,0,0,0,15.22153,9.40742h32.02772l-11.4392-22.87807a8.5092,8.5092,0,0,1,1.59422-9.8222l5.50832-5.50844a8.50913,8.50913,0,0,0,1.59377-9.8222l-8.69631-17.39256a8.5092,8.5092,0,0,1,1.59422-9.8222l5.50832-5.50844a8.50913,8.50913,0,0,0,1.59377-9.8222Z" style="fill:none"/></clipPath><clipPath id="j"><path d="M652.29425,76.94674,625.188,24.67031a4.25456,4.25456,0,0,0-6.78539-1.05l-17.16282,17.1628,21.2727,21.27271Z" style="fill:none"/></clipPath><clipPath id="m"><path d="M684.91239,101.76487l1.86734,3.73473a8.50911,8.50911,0,0,0,11.41613,3.80535l1.79666-.89832a4.25456,4.25456,0,0,0,0-7.61076l-9.40741-4.7037a4.22818,4.22818,0,0,0-5.67272,5.6727Z" style="fill:none"/></clipPath><clipPath id="p"><polygon points="579.967 274.783 551.603 303.146 579.967 359.874 579.967 274.783" style="fill:none"/></clipPath><clipPath id="s"><polygon points="537.422 274.783 509.058 303.146 537.422 359.874 537.422 274.783" style="fill:none"/></clipPath><clipPath id="v"><path d="M77.03311,150.952l15.67888,7.8395a17.01972,17.01972,0,0,1,7.61093,7.61075l8.90178,17.80427-5.73087-11.462a4.25446,4.25446,0,0,1,5.70788-5.70807l11.275,5.6374Z" style="fill:none"/></clipPath><clipPath id="y"><path d="M622.51246,62.05585l-38.74-19.37a8.50918,8.50918,0,0,0-7.61077,0l-38.74,19.37,39.537-39.537a4.25455,4.25455,0,0,1,6.01685,0Z" style="fill:none"/></clipPath><clipPath id="ab"><path d="M622.51246,62.05585l-21.2727-10.63636a3.85955,3.85955,0,0,0,4.45514-6.18121l-8.70968-8.70968Z" style="fill:none"/></clipPath><clipPath id="ae"><path d="M537.42165,62.05585l21.2727-10.63636a3.85955,3.85955,0,0,1-4.45514-6.18121l8.70968-8.70968Z" style="fill:none"/></clipPath><clipPath id="ah"><path d="M466.51262,218.05569l-12.229,12.229a17.018,17.018,0,0,1-4.42289,3.18784l-32.46457,16.23226a17.01787,17.01787,0,0,1-15.22146,0l-85.98916-42.99455-8.50908,17.01816,94.49824,47.24909a17.01787,17.01787,0,0,0,15.22146,0l60.46192-30.23093Z" style="fill:none"/></clipPath><clipPath id="ak"><path d="M458.16475,226.40356l-3.88113,3.88112,7.89235-7.89234a8.50908,8.50908,0,0,0,1.59393-9.82221l-7.18452-14.369,21.2727,42.54541L471.7923,228.615a8.509,8.509,0,0,0-13.62755-2.21146Z" style="fill:none"/></clipPath><clipPath id="an"><circle cx="639.53062" cy="87.58309" r="4.25454" style="fill:none"/></clipPath><clipPath id="ap"><polygon points="324.695 359.874 324.695 274.783 290.658 257.765 282.149 274.783 324.695 359.874" style="fill:none"/></clipPath><clipPath id="as"><path d="M282.14922,359.87369V274.78287l-42.54541-21.2727v17.25527a17.01864,17.01864,0,0,0,1.7967,7.61073Z" style="fill:none"/></clipPath><clipPath id="av"><path d="M333.2037,215.21931l-9.40743-4.7037a8.50909,8.50909,0,0,1-3.80533-11.41611l4.70368-9.40744-17.01816,34.03633,4.70368-9.40743a8.50911,8.50911,0,0,1,11.41613-3.80535Z" style="fill:none"/></clipPath><clipPath id="ay"><path d="M333.2037,257.76471l-2.801,5.602a12.76361,12.76361,0,0,1-17.12418,5.70806l-22.62019-11.3101,34.03632,38.29087V277.79594a12.7637,12.7637,0,0,1,1.3475-5.70806Z" style="fill:none"/></clipPath><clipPath id="bb"><path d="M290.6583,257.76471l-2.801,5.602a12.76357,12.76357,0,0,1-17.12424,5.70806l-22.62013-11.3101,34.03633,51.05449V277.79594a12.7623,12.7623,0,0,1,1.34743-5.70806Z" style="fill:none"/></clipPath><clipPath id="be"><path d="M239.60381,240.74655v7.50471a8.509,8.509,0,0,0,4.70381,7.61078l12.31435,6.15721H239.60381Z" style="fill:none"/></clipPath><clipPath id="bh"><path d="M579.96706,202.45568v-2.49226a4.25453,4.25453,0,0,0-7.263-3.00838l-1.24611,1.2461,8.50909-8.50908Z" style="fill:none"/></clipPath><clipPath id="bk"><path d="M601.23976,168.41936l2.734-2.734a4.25455,4.25455,0,0,0-4.9111-6.81382l-2.07745,1.03874,25.52724-12.76362Z" style="fill:none"/></clipPath><clipPath id="bn"><path d="M652.29425,76.94674,631.02154,66.31039l9.57046,4.78525a4.25456,4.25456,0,0,0,5.67969-5.76384L633.52142,40.74205Z" style="fill:none"/></clipPath></defs><title>illu_1</title><path d="M190.32915,417.3452c433.24939,23.13026,617.74056-11.32433,525.84722-97.55594-89.633-84.11057,95.76239-162.637-257.10625-189.07519C261.55066,115.9152-122.4304,236.0948,51.5421,276.29932S16.35665,408.05718,190.32915,417.3452Z" style="fill:#7995ff"/><g style="clip-path:url(#a)"><g style="clip-path:url(#b)"><rect width="723.61801" height="381.14639" style="fill:#ff8d5f"/></g></g><g style="clip-path:url(#b)"><path d="M579.96706,359.87369l-42.54539-85.09083v85.09083L477.8581,240.74653l-60.46194,30.231a17.01832,17.01832,0,0,1-15.22149,0l-60.46189-30.231-15.22149,30.443a17.01845,17.01845,0,0,0-1.79667,7.61078v81.07339l-42.5454-85.09083v85.09083l-40.74893-81.49753a17.019,17.019,0,0,1-1.79667-7.61077V232.23745l-81.49741,40.74877a17.01676,17.01676,0,0,1-7.61054,1.79664H79.94006a17.01779,17.01779,0,0,1-15.22146-9.40742L22.1732,180.28463a8.50882,8.50882,0,0,1,3.8053-11.41613l35.833-17.91651a17.01819,17.01819,0,0,1,15.22146,0l69.86935,34.93468a17.01813,17.01813,0,0,0,15.2214,0l154.486-77.243a38.29072,38.29072,0,0,1,17.12418-4.04245H487.82708a17.01811,17.01811,0,0,0,12.03367-4.98454l77.09789-77.09785a4.25456,4.25456,0,0,1,6.01686,0l39.537,39.537,77.48005,38.74a4.25451,4.25451,0,0,1,0,7.61073l-75.00995,37.505a17.01727,17.01727,0,0,0-4.42289,3.18784l-35.60813,35.60808a17.01831,17.01831,0,0,0-4.98449,12.03367Z" style="fill:none;stroke:#000;stroke-linecap:round;stroke-linejoin:round;stroke-width:4.254540321463622px"/></g><g style="clip-path:url(#d)"><g style="clip-path:url(#b)"><rect x="69.42219" y="236.49201" width="85.09081" height="59.56357"/></g></g><g style="clip-path:url(#b)"><path d="M133.2403,274.78287H122.4854a17.01815,17.01815,0,0,1-15.22146-9.4074l-3.80543-7.61076,2.35189,4.70371a8.50906,8.50906,0,0,1-7.61073,12.31445H133.2403Z" style="fill:none;stroke:#000;stroke-miterlimit:10;stroke-width:4.254540321463622px"/></g><g style="clip-path:url(#g)"><g style="clip-path:url(#b)"><rect y="127.8827" width="133.2403" height="168.17288" style="fill:#fff"/></g></g><g style="clip-path:url(#b)"><path d="M97.78581,161.32849,77.033,150.95207a17.01813,17.01813,0,0,0-15.22152,0l-35.833,17.91648a8.509,8.509,0,0,0-3.80537,11.41613l42.54541,85.09081A17.01816,17.01816,0,0,0,79.94,274.78288h32.02759l-11.439-22.87807a8.509,8.509,0,0,1,1.5939-9.8222l5.50845-5.50844a8.50916,8.50916,0,0,0,1.594-9.82221l-8.69631-17.39255a8.509,8.509,0,0,1,1.5939-9.8222l5.50845-5.50844a8.50915,8.50915,0,0,0,1.594-9.8222Z" style="fill:none;stroke:#000;stroke-linecap:round;stroke-linejoin:round;stroke-width:4.254540321463622px"/></g><g style="clip-path:url(#j)"><g style="clip-path:url(#b)"><rect x="579.96706" y="1.10061" width="93.59989" height="97.11883" style="fill:#fff"/></g></g><g style="clip-path:url(#b)"><path d="M652.29425,76.94674,625.188,24.67034a4.25455,4.25455,0,0,0-6.7854-1.05l-17.1628,17.16277,21.2727,21.27271Z" style="fill:none;stroke:#000;stroke-linecap:round;stroke-linejoin:round;stroke-width:4.254540321463622px"/></g><g style="clip-path:url(#m)"><g style="clip-path:url(#b)"><rect x="663.19332" y="74.37214" width="60.42469" height="57.10573"/></g></g><g style="clip-path:url(#b)"><path d="M684.91239,101.76492l1.86734,3.73468a8.50907,8.50907,0,0,0,11.41613,3.80538l1.79666-.89831a4.25456,4.25456,0,0,0,0-7.61077l-9.40741-4.7037a4.22819,4.22819,0,0,0-5.67272,5.67272Z" style="fill:none;stroke:#000;stroke-linecap:round;stroke-linejoin:round;stroke-width:4.254540321463622px"/><polyline points="537.422 189.692 537.422 359.874 452.331 189.692" style="fill:none;stroke:#000;stroke-linecap:round;stroke-linejoin:round;stroke-width:4.254540321463622px"/></g><g style="clip-path:url(#p)"><g style="clip-path:url(#b)"><rect x="530.33073" y="253.51017" width="70.90903" height="127.63622"/></g></g><g style="clip-path:url(#b)"><polygon points="579.967 274.783 551.603 303.146 579.967 359.874 579.967 274.783" style="fill:none;stroke:#000;stroke-linecap:round;stroke-linejoin:round;stroke-width:4.254540321463622px"/></g><g style="clip-path:url(#s)"><g style="clip-path:url(#b)"><rect x="487.78532" y="253.51017" width="70.90903" height="127.63622"/></g></g><g style="clip-path:url(#b)"><polygon points="537.422 274.783 509.058 303.146 537.422 359.874 537.422 274.783" style="fill:none;stroke:#000;stroke-linecap:round;stroke-linejoin:round;stroke-width:4.254540321463622px"/><line x1="324.69462" y1="189.69206" x2="282.14922" y2="274.78287" style="fill:none;stroke:#000;stroke-linecap:round;stroke-linejoin:round;stroke-width:4.254540321463622px"/><line x1="282.14922" y1="189.69206" x2="239.60381" y2="232.23747" style="fill:none;stroke:#000;stroke-linecap:round;stroke-linejoin:round;stroke-width:4.254540321463622px"/></g><g style="clip-path:url(#v)"><g style="clip-path:url(#b)"><rect x="55.76041" y="129.67934" width="85.98897" height="75.79993"/></g></g><g style="clip-path:url(#b)"><path d="M77.033,150.952l15.679,7.83952a17.01811,17.01811,0,0,1,7.61073,7.61075l8.90217,17.80425-5.731-11.462a4.25455,4.25455,0,0,1,5.70808-5.70807l11.2747,5.63739Z" style="fill:none;stroke:#000;stroke-linecap:round;stroke-linejoin:round;stroke-width:4.254540321463622px"/></g><g style="clip-path:url(#y)"><g style="clip-path:url(#b)"><rect x="516.14895" width="127.63622" height="83.32855" style="fill:#fff"/></g></g><g style="clip-path:url(#b)"><path d="M622.51246,62.05585l-38.74-19.37a8.509,8.509,0,0,0-7.61077,0l-38.74,19.37,39.537-39.537a4.25459,4.25459,0,0,1,6.01684,0Z" style="fill:none;stroke:#000;stroke-linecap:round;stroke-linejoin:round;stroke-width:4.254540321463622px"/></g><g style="clip-path:url(#ab)"><g style="clip-path:url(#b)"><rect x="575.71251" y="15.2559" width="68.07265" height="68.07265"/></g></g><g style="clip-path:url(#b)"><path d="M622.51246,62.05585l-21.2727-10.63636a3.85954,3.85954,0,0,0,4.45516-6.18117l-8.7097-8.70972Z" style="fill:none;stroke:#000;stroke-linecap:round;stroke-linejoin:round;stroke-width:4.254540321463622px"/></g><g style="clip-path:url(#ae)"><g style="clip-path:url(#b)"><rect x="516.14895" y="15.2559" width="68.07265" height="68.07265"/></g></g><g style="clip-path:url(#b)"><path d="M537.42165,62.05585l21.2727-10.63636a3.85953,3.85953,0,0,1-4.45514-6.18117l8.70968-8.70972Z" style="fill:none;stroke:#000;stroke-linecap:round;stroke-linejoin:round;stroke-width:4.254540321463622px"/><path d="M631.02154,142.89212l-45.569,22.78449a8.50908,8.50908,0,0,1-9.8222-1.59393l-12.59931-12.59933a8.50906,8.50906,0,0,0-9.8222-1.59392l-14.55624,7.2781a8.5091,8.5091,0,0,1-9.8222-1.59393l-16.936-16.936" style="fill:none;stroke:#000;stroke-linecap:round;stroke-linejoin:round;stroke-width:4.254540321463622px"/></g><g style="clip-path:url(#ah)"><g style="clip-path:url(#b)"><rect x="286.40376" y="185.43752" width="212.72703" height="108.60931" style="fill:#fff"/></g></g><g style="clip-path:url(#b)"><path d="M466.51265,218.05567l-12.229,12.229a17.01794,17.01794,0,0,1-4.42291,3.18784L417.3962,249.70478a17.018,17.018,0,0,1-15.2215,0l-85.98916-42.99455-8.50908,17.01816,94.49824,47.24909a17.018,17.018,0,0,0,15.2215,0l60.46188-30.23093Z" style="fill:none;stroke:#000;stroke-linecap:round;stroke-linejoin:round;stroke-width:4.254540321463622px"/></g><g style="clip-path:url(#ak)"><g style="clip-path:url(#b)"><rect x="433.01094" y="176.92844" width="66.11985" height="85.09081"/></g></g><g style="clip-path:url(#b)"><path d="M458.16475,226.40358l-3.88111,3.8811,7.89233-7.89233a8.50906,8.50906,0,0,0,1.59391-9.8222l-7.1845-14.369,21.2727,42.54541L471.79233,228.615a8.50906,8.50906,0,0,0-13.62758-2.21145Z" style="fill:none;stroke:#000;stroke-linecap:round;stroke-linejoin:round;stroke-width:4.254540321463622px"/></g><g style="clip-path:url(#an)"><g style="clip-path:url(#b)"><rect x="614.00338" y="62.05585" width="51.05449" height="51.05449"/></g></g><g style="clip-path:url(#ap)"><g style="clip-path:url(#b)"><rect x="260.87651" y="236.49201" width="85.09081" height="144.65438"/></g></g><g style="clip-path:url(#b)"><polygon points="324.695 359.874 324.695 274.783 290.658 257.765 282.149 274.783 324.695 359.874" style="fill:none;stroke:#000;stroke-linecap:round;stroke-linejoin:round;stroke-width:4.254540321463622px"/></g><g style="clip-path:url(#as)"><g style="clip-path:url(#b)"><rect x="218.33111" y="232.23747" width="85.09081" height="148.90892"/></g></g><g style="clip-path:url(#b)"><path d="M282.14922,359.87369V274.78287l-42.54541-21.2727v17.25526a17.01824,17.01824,0,0,0,1.79667,7.61076Z" style="fill:none;stroke:#000;stroke-linecap:round;stroke-linejoin:round;stroke-width:4.254540321463622px"/><line x1="601.23976" y1="168.41936" x2="558.69435" y2="210.96477" style="fill:none;stroke:#000;stroke-linecap:round;stroke-linejoin:round;stroke-width:4.254540321463622px"/></g><g style="clip-path:url(#av)"><g style="clip-path:url(#b)"><rect x="286.40376" y="168.41936" width="68.07265" height="76.58173"/></g></g><g style="clip-path:url(#b)"><path d="M333.2037,215.21931l-9.4074-4.7037a8.50909,8.50909,0,0,1-3.80536-11.41613l4.70368-9.40742-17.01816,34.03633,4.70372-9.4074a8.50908,8.50908,0,0,1,11.41612-3.80538Z" style="fill:none;stroke:#000;stroke-miterlimit:10;stroke-width:4.254540321463622px"/></g><g style="clip-path:url(#ay)"><g style="clip-path:url(#b)"><rect x="269.38559" y="236.49201" width="85.09081" height="80.83627"/></g></g><g style="clip-path:url(#b)"><path d="M333.2037,257.76471l-2.801,5.602a12.76363,12.76363,0,0,1-17.12421,5.70806l-22.62019-11.3101,34.03632,38.29087V277.796a12.76364,12.76364,0,0,1,1.3475-5.70807Z" style="fill:none;stroke:#000;stroke-linejoin:round;stroke-width:4.254540321463622px"/></g><g style="clip-path:url(#bb)"><g style="clip-path:url(#b)"><rect x="226.84019" y="236.49201" width="85.09081" height="93.59989"/></g></g><g style="clip-path:url(#b)"><path d="M290.6583,257.76471l-2.801,5.602a12.76363,12.76363,0,0,1-17.12421,5.70806l-22.6202-11.3101,34.03633,51.05449V277.796a12.76363,12.76363,0,0,1,1.34749-5.70807Z" style="fill:none;stroke:#000;stroke-miterlimit:10;stroke-width:4.254540321463622px"/></g><g style="clip-path:url(#be)"><g style="clip-path:url(#b)"><rect x="218.33111" y="219.47385" width="59.56357" height="63.81811"/></g></g><g style="clip-path:url(#b)"><path d="M239.60381,240.74655v7.50472a8.50912,8.50912,0,0,0,4.70372,7.61076l12.31444,6.15722H239.60381Z" style="fill:none;stroke:#000;stroke-miterlimit:10;stroke-width:4.254540321463622px"/></g><g style="clip-path:url(#bh)"><g style="clip-path:url(#b)"><rect x="550.18527" y="168.41936" width="51.05449" height="55.30903"/></g></g><g style="clip-path:url(#b)"><path d="M579.96706,202.45568v-2.49224a4.25454,4.25454,0,0,0-7.26295-3.00842l-1.24614,1.24612,8.50909-8.50908Z" style="fill:none;stroke:#000;stroke-miterlimit:10;stroke-width:4.254540321463622px"/></g><g style="clip-path:url(#bk)"><g style="clip-path:url(#b)"><rect x="575.71251" y="125.87395" width="68.07265" height="63.81811"/></g></g><g style="clip-path:url(#b)"><path d="M601.23976,168.41936l2.734-2.734a4.25455,4.25455,0,0,0-4.91111-6.8138l-2.07745,1.03872,25.52724-12.76362Z" style="fill:none;stroke:#000;stroke-miterlimit:10;stroke-width:4.254540321463622px"/></g><g style="clip-path:url(#bn)"><g style="clip-path:url(#b)"><rect x="609.74884" y="19.46935" width="63.81811" height="78.75009"/></g></g><g style="clip-path:url(#b)"><path d="M652.29425,76.94674,631.02154,66.31039l9.57048,4.78525a4.25453,4.25453,0,0,0,5.67967-5.76381L633.52145,40.74205Z" style="fill:none;stroke:#000;stroke-miterlimit:10;stroke-width:4.254540321463622px"/><path d="M252.36743,219.47385l-7.7791,7.77912a17.01818,17.01818,0,0,0-4.98452,12.03365v9.969" style="fill:none;stroke:#000;stroke-miterlimit:10;stroke-width:4.254540321463622px"/></g><polygon points="732.582 229.855 688.068 199.547 724.336 151.229 682.362 117.222 657.009 129.898 643.785 121.645 612.04 126.44 655.475 161.63 619.207 209.948 663.721 240.256 732.582 229.855" style="fill:#fff;stroke:#000;stroke-linecap:round;stroke-linejoin:round;stroke-width:5px"/><line x1="667.14127" y1="231.70237" x2="712.92959" y2="224.78646" style="fill:#fff;stroke:#000;stroke-linecap:round;stroke-linejoin:round;stroke-width:3.324696096502766px"/><line x1="653.4828" y1="222.60928" x2="699.27111" y2="215.69338" style="fill:#fff;stroke:#000;stroke-linecap:round;stroke-linejoin:round;stroke-width:3.324696096502766px"/><line x1="639.82432" y1="213.5162" x2="685.61263" y2="206.60029" style="fill:#fff;stroke:#000;stroke-linecap:round;stroke-linejoin:round;stroke-width:3.324696096502766px"/><line x1="635.27608" y1="203.21991" x2="681.0644" y2="196.30401" style="fill:#fff;stroke:#000;stroke-linecap:round;stroke-linejoin:round;stroke-width:3.324696096502766px"/><line x1="644.37256" y1="189.3881" x2="690.16087" y2="182.4722" style="fill:#fff;stroke:#000;stroke-linecap:round;stroke-linejoin:round;stroke-width:3.324696096502766px"/><line x1="653.46903" y1="175.55629" x2="699.25734" y2="168.64038" style="fill:#fff;stroke:#000;stroke-linecap:round;stroke-linejoin:round;stroke-width:3.324696096502766px"/><line x1="662.5655" y1="161.72448" x2="708.35382" y2="154.80857" style="fill:#fff;stroke:#000;stroke-linecap:round;stroke-linejoin:round;stroke-width:3.324696096502766px"/><line x1="655.88924" y1="150.60461" x2="701.67755" y2="143.6887" style="fill:#fff;stroke:#000;stroke-linecap:round;stroke-linejoin:round;stroke-width:3.324696096502766px"/><line x1="647.04364" y1="142.19669" x2="692.83195" y2="135.28078" style="fill:#fff;stroke:#000;stroke-linecap:round;stroke-linejoin:round;stroke-width:3.324696096502766px"/><line x1="638.19805" y1="133.78876" x2="683.98636" y2="126.87286" style="fill:#fff;stroke:#000;stroke-linecap:round;stroke-linejoin:round;stroke-width:3.324696096502766px"/></svg>