<svg xmlns="http://www.w3.org/2000/svg" width="50" height="50" viewBox="0 0 50 50">
  <g fill="none" fill-rule="evenodd" transform="translate(4.167 4.167)">
    <path fill="#FF8D5F" fill-rule="nonzero" d="M10.0414408,18.1418504 L19.0176454,36.0942596 C19.062333,36.1756919 19.1638043,36.2078677 19.2476029,36.1659684 C19.9166229,35.7849663 20.4051304,35.5902778 20.8333333,35.5902778 C21.2615117,35.5902778 21.7499815,35.7849427 22.4108106,36.1615602 C22.4701888,36.1954222 22.5411467,36.1903546 22.5941903,36.1544097 C24.3098549,32.7364364 27.3370262,26.6938093 31.6757043,18.0265287 C31.8931783,17.4509087 31.6440891,16.7925602 31.0817371,16.5113842 L22.3085171,12.1247741 C21.3798674,11.6604493 20.2867993,11.6604493 19.3581496,12.1247741 L10.5849296,16.5113842 C9.98460847,16.8115447 9.74128027,17.5415293 10.0414408,18.1418504 Z"/>
    <path fill="#FFFFFF" fill-rule="nonzero" d="M31.8581496 14.9585592C32.4584707 15.2587197 33.1884553 15.0153915 33.4886158 14.4150704L39.4927117 2.40687873C39.5355918 2.32111857 39.5008306 2.21683506 39.4150704 2.17395498 39.3661941 2.14951683 39.3086642 2.14951683 39.2597879 2.17395498L23.0849296 10.2613842C22.9991694 10.3042642 22.9644082 10.4085478 23.0072883 10.4943079 23.0240876 10.5279064 23.0513311 10.5551499 23.0849296 10.5719492L31.8581496 14.9585592zM18.5817371 10.5719492C18.6674973 10.5290691 18.7022584 10.4247856 18.6593784 10.3390254 18.6425791 10.3054269 18.6153356 10.2781834 18.5817371 10.2613842L2.40687873 2.17395498C2.32111857 2.1310749 2.21683506 2.16583607 2.17395498 2.25159623 2.14951683 2.30047253 2.14951683 2.35800243 2.17395498 2.40687873L8.17805083 14.4150704C8.47821138 15.0153915 9.20819598 15.2587197 9.80851707 14.9585592L18.5817371 10.5719492z"/>
    <path fill="#000000" fill-rule="nonzero" d="M19.3581496,8.70855918 C20.6678391,9.27124023 21.4373906,9.05469259 22.3085171,8.70855918 L38.4833754,0.621129994 C39.0210148,0.352310341 39.6538436,0.352310341 40.1914829,0.621129994 C41.1348446,1.09281085 41.5172175,2.2399295 41.0455367,3.18329122 L22.5414408,40.1914829 C22.356649,40.5610665 22.0569707,40.8607449 21.6873871,41.0455367 C20.7440254,41.5172175 19.5969067,41.1348446 19.1252259,40.1914829 L17.4717922,36.8846157 C17.4683738,36.8779712 17.4649892,36.8712984 17.4616386,36.8645972 L0.621129994,3.18329122 C0.352310341,2.64565191 0.352310341,2.01282304 0.621129994,1.47518374 C1.09281085,0.531822021 2.2399295,0.149449137 3.18329122,0.621129994 L19.3581496,8.70855918 Z M10.0414408,18.1418504 L19.0176454,36.0942596 C19.062333,36.1756919 19.1638043,36.2078677 19.2476029,36.1659684 C19.9166229,35.7849663 20.4051304,35.5902778 20.8333333,35.5902778 C21.2615117,35.5902778 21.7499815,35.7849427 22.4108106,36.1615602 C22.4701888,36.1954222 22.5411467,36.1903546 22.5941903,36.1544097 C24.3098549,32.7364364 27.3370262,26.6938093 31.6757043,18.0265287 C31.8931783,17.4509087 31.6440891,16.7925602 31.0817371,16.5113842 L22.3085171,12.1247741 C21.3798674,11.6604493 20.2867993,11.6604493 19.3581496,12.1247741 L10.5849296,16.5113842 C9.98460847,16.8115447 9.74128027,17.5415293 10.0414408,18.1418504 Z M17.7083333,25 C17.1330367,25 16.6666667,24.5336299 16.6666667,23.9583333 C16.6666667,23.3830367 17.1330367,22.9166667 17.7083333,22.9166667 C18.2836299,22.9166667 18.75,23.3830367 18.75,23.9583333 C18.75,24.5336299 18.2836299,25 17.7083333,25 Z M23.9583333,25 C23.3830367,25 22.9166667,24.5336299 22.9166667,23.9583333 C22.9166667,23.3830367 23.3830367,22.9166667 23.9583333,22.9166667 C24.5336299,22.9166667 25,23.3830367 25,23.9583333 C25,24.5336299 24.5336299,25 23.9583333,25 Z M31.8581496,14.9585592 C32.4584707,15.2587197 33.1884553,15.0153915 33.4886158,14.4150704 L39.4927117,2.40687873 C39.5355918,2.32111857 39.5008306,2.21683506 39.4150704,2.17395498 C39.3661941,2.14951683 39.3086642,2.14951683 39.2597879,2.17395498 L23.0849296,10.2613842 C22.9991694,10.3042642 22.9644082,10.4085478 23.0072883,10.4943079 C23.0240876,10.5279064 23.0513311,10.5551499 23.0849296,10.5719492 L31.8581496,14.9585592 Z M18.5817371,10.5719492 C18.6674973,10.5290691 18.7022584,10.4247856 18.6593784,10.3390254 C18.6425791,10.3054269 18.6153356,10.2781834 18.5817371,10.2613842 L2.40687873,2.17395498 C2.32111857,2.1310749 2.21683506,2.16583607 2.17395498,2.25159623 C2.14951683,2.30047253 2.14951683,2.35800243 2.17395498,2.40687873 L8.17805083,14.4150704 C8.47821138,15.0153915 9.20819598,15.2587197 9.80851707,14.9585592 L18.5817371,10.5719492 Z"/>
  </g>
</svg>
