<svg viewBox="0 0 20 20">
    <path fill="#FF8D5F" d="M4.81989159,8.70808819 L9.12846981,17.3252446 C9.14991985,17.3643321 9.19862604,17.3797765 9.2388494,17.3596648 C9.55997901,17.1767838 9.79446257,17.0833333 10,17.0833333 C10.2055256,17.0833333 10.4399911,17.1767725 10.7571891,17.3575489 C10.7856906,17.3738027 10.8197504,17.3713702 10.8452113,17.3541167 C11.6687303,15.7134895 13.1217726,12.8130285 15.2043381,8.65273375 C15.3087256,8.37643617 15.1891628,8.06042888 14.9192338,7.9254644 L10.7080882,5.81989159 C10.2623363,5.59701566 9.73766367,5.59701566 9.29191181,5.81989159 L5.08076619,7.9254644 C4.79261207,8.06954146 4.67581453,8.41993407 4.81989159,8.70808819 Z"/>
    <path fill="#FFFFFF" d="M15.2919118 7.18010841C15.5800659 7.32418547 15.9304585 7.20738793 16.0745356 6.91923381L18.9565016 1.15530179C18.977084 1.11413691 18.9603987 1.06408083 18.9192338 1.04349839 18.8957732 1.03176808 18.8681588 1.03176808 18.8446982 1.04349839L11.0807662 4.9254644C11.0396013 4.94604684 11.022916 4.99610292 11.0434984 5.0372678 11.051562 5.05339508 11.0646389 5.06647196 11.0807662 5.0745356L15.2919118 7.18010841zM8.91923381 5.0745356C8.96039869 5.05395316 8.97708405 5.00389708 8.95650161 4.9627322 8.94843797 4.94660492 8.93536109 4.93352804 8.91923381 4.9254644L1.15530179 1.04349839C1.11413691 1.02291595 1.06408083 1.03960131 1.04349839 1.08076619 1.03176808 1.10422681 1.03176808 1.13184116 1.04349839 1.15530179L3.9254644 6.91923381C4.06954146 7.20738793 4.41993407 7.32418547 4.70808819 7.18010841L8.91923381 5.0745356z"/>
    <path fill="#000000" d="M9.29191181,4.18010841 C9.92056274,4.45019531 10.2899475,4.34625244 10.7080882,4.18010841 L18.4720202,0.298142397 C18.7300871,0.169108964 19.0338449,0.169108964 19.2919118,0.298142397 C19.7447254,0.524549208 19.9282644,1.07516616 19.7018576,1.52797978 L10.8198916,19.2919118 C10.7311915,19.4693119 10.5873459,19.6131575 10.4099458,19.7018576 C9.95713217,19.9282644 9.40651522,19.7447254 9.18010841,19.2919118 L8.38646027,17.7046155 C8.38481943,17.7014262 8.3831948,17.6982232 8.38158651,17.6950067 L0.298142397,1.52797978 C0.169108964,1.26991292 0.169108964,0.966155059 0.298142397,0.708088193 C0.524549208,0.25527457 1.07516616,0.0717355857 1.52797978,0.298142397 L9.29191181,4.18010841 Z M4.81989159,8.70808819 L9.12846981,17.3252446 C9.14991985,17.3643321 9.19862604,17.3797765 9.2388494,17.3596648 C9.55997901,17.1767838 9.79446257,17.0833333 10,17.0833333 C10.2055256,17.0833333 10.4399911,17.1767725 10.7571891,17.3575489 C10.7856906,17.3738027 10.8197504,17.3713702 10.8452113,17.3541167 C11.6687303,15.7134895 13.1217726,12.8130285 15.2043381,8.65273375 C15.3087256,8.37643617 15.1891628,8.06042888 14.9192338,7.9254644 L10.7080882,5.81989159 C10.2623363,5.59701566 9.73766367,5.59701566 9.29191181,5.81989159 L5.08076619,7.9254644 C4.79261207,8.06954146 4.67581453,8.41993407 4.81989159,8.70808819 Z M8.5,12 C8.22385763,12 8,11.7761424 8,11.5 C8,11.2238576 8.22385763,11 8.5,11 C8.77614237,11 9,11.2238576 9,11.5 C9,11.7761424 8.77614237,12 8.5,12 Z M11.5,12 C11.2238576,12 11,11.7761424 11,11.5 C11,11.2238576 11.2238576,11 11.5,11 C11.7761424,11 12,11.2238576 12,11.5 C12,11.7761424 11.7761424,12 11.5,12 Z M15.2919118,7.18010841 C15.5800659,7.32418547 15.9304585,7.20738793 16.0745356,6.91923381 L18.9565016,1.15530179 C18.977084,1.11413691 18.9603987,1.06408083 18.9192338,1.04349839 C18.8957732,1.03176808 18.8681588,1.03176808 18.8446982,1.04349839 L11.0807662,4.9254644 C11.0396013,4.94604684 11.022916,4.99610292 11.0434984,5.0372678 C11.051562,5.05339508 11.0646389,5.06647196 11.0807662,5.0745356 L15.2919118,7.18010841 Z M8.91923381,5.0745356 C8.96039869,5.05395316 8.97708405,5.00389708 8.95650161,4.9627322 C8.94843797,4.94660492 8.93536109,4.93352804 8.91923381,4.9254644 L1.15530179,1.04349839 C1.11413691,1.02291595 1.06408083,1.03960131 1.04349839,1.08076619 C1.03176808,1.10422681 1.03176808,1.13184116 1.04349839,1.15530179 L3.9254644,6.91923381 C4.06954146,7.20738793 4.41993407,7.32418547 4.70808819,7.18010841 L8.91923381,5.0745356 Z"/>
</svg>
