<svg xmlns="http://www.w3.org/2000/svg" viewBox="0 0 1799.52381 1153.15407"><title>illu-3</title><path d="M26.7359,574.18625C-53.026,867.771,392.472,1319.4,898.06058,1010.73406c424.81539-259.35327,700.661-88.822,846.98943-227.90079C2053.129,490.01779,347.26208-605.59451,26.7359,574.18625Z" style="fill:#7995ff"/><path d="M1000.73088,332.39742l232.7895,440.84979a20,20,0,0,1,.01987,18.64007L1125.20531,998.11241a20,20,0,0,1-17.7056,10.69883h-207.918L773.54335,782.562Z" style="fill:#ff8d5f;stroke:#000;stroke-miterlimit:10;stroke-width:10px"/><path d="M1002.19127,727.78768l152.5106,277.60795a1,1,0,0,0,1.87645-.48149V632.49283a19.99991,19.99991,0,0,0-2.31428-9.3389l-23.15952-43.85881" style="fill:#ff8d5f;stroke:#000;stroke-miterlimit:10;stroke-width:10px"/><path d="M1110.81425,559.63407,999.50109,780.49581,886.3558,559.02786l114.37508-226.63044,109.90189,208.12891A20.837,20.837,0,0,1,1110.81425,559.63407Z" style="fill:#fff;stroke:#000;stroke-miterlimit:10;stroke-width:10px"/><path d="M653.693,998.33378,566.10628,836.56657a20,20,0,0,1,8.73322-27.45578L878.404,659.22956a20,20,0,0,1,18.02007.15717l206.41467,106.43216a20,20,0,0,1,8.72341,26.71912L1008.9717,997.75428a20,20,0,0,1-17.88916,11.057h-319.802A20,20,0,0,1,653.693,998.33378Z" style="fill:#ff8d5f;stroke:#000;stroke-miterlimit:10;stroke-width:10px"/><path d="M811.3523,615.52178l215.33536,111.03187L890.56174,564.04885a10,10,0,0,1-1.28381-10.88285l60.38286-121.12941L808.2809,600.19852A10,10,0,0,0,811.3523,615.52178Z" style="fill:#ff8d5f;stroke:#000;stroke-miterlimit:10;stroke-width:10px"/><path d="M991.74619,515.54577,812.00443,158.88794A10,10,0,0,1,825.51059,145.496l175.22029,90.17814,172.82679-90.03956A10,10,0,0,1,1187.13,158.95985L1009.62825,515.502A10,10,0,0,1,991.74619,515.54577Z" style="fill:#ff8d5f;stroke:#000;stroke-miterlimit:10;stroke-width:10px"/><path d="M1000.73088,235.67413,825.51062,145.496a10,10,0,0,0-13.50616,13.392L881.901,297.58227Z" style="fill:#fff;stroke:#000;stroke-miterlimit:10;stroke-width:10px"/><path d="M1000.73088,235.67413,825.51062,145.496a10,10,0,0,0-13.50616,13.392l85.56,169.775-9.0032-17.8649a15,15,0,0,1,6.46455-20.05351Z" style="fill:none;stroke:#000;stroke-miterlimit:10;stroke-width:10px"/><path d="M983.5596,226.83683,825.51062,145.496a10,10,0,0,0-13.50616,13.392l60.7736,120.59177a20,20,0,0,0,27.10091,8.73638L983.60389,244.597A10,10,0,0,0,983.5596,226.83683Z" style="fill:none;stroke:#000;stroke-miterlimit:10;stroke-width:10px"/><path d="M1173.55768,145.63458l-159.04993,82.86205a30,30,0,0,1-27.58938.06881l-23.62263-12.15752L1118.96391,295.883,1187.13,158.95985A10,10,0,0,0,1173.55768,145.63458Z" style="fill:#fff;stroke:#000;stroke-miterlimit:10;stroke-width:10px"/><path d="M1000.73088,235.67413,1105.47519,289.014a15,15,0,0,0,20.23479-6.68163l38.94172-78.221" style="fill:none;stroke:#000;stroke-miterlimit:10;stroke-width:10px"/><path d="M1173.55768,145.63458,1017.94825,226.7042a10,10,0,0,0,.0825,17.7797l87.68749,44.65388a15,15,0,0,1,6.62116,20.05166L1102.14131,329.674,1187.13,158.95985A10,10,0,0,0,1173.55768,145.63458Z" style="fill:none;stroke:#000;stroke-miterlimit:10;stroke-width:10px"/><path d="M988.17782,488.893a10,10,0,0,1-12.33418-4.90236L972.93,478.20922l18.81616,37.33654a10,10,0,0,0,17.88206-.04374l18.40251-36.96453-2.563,5.14827a10,10,0,0,1-12.35556,4.94628l-8.70393-3.15056a10,10,0,0,0-6.80768.00019Z" style="stroke:#000;stroke-miterlimit:10;stroke-width:10px"/><path d="M961.106,256.31793l25.92029-13.504a30,30,0,0,1,27.47477-.12749l35.36461,18.009" style="fill:none;stroke:#000;stroke-miterlimit:10;stroke-width:10px"/><circle cx="1036.02215" cy="352.78333" r="11.15217"/><circle cx="966.79387" cy="352.78333" r="11.15217"/><path d="M1156.57832,693.30217V659.81943c0-8.346,11.17716-11.11581,15.07429-3.73556l16.29473,30.85849" style="fill:#ff8d5f;stroke:#000;stroke-miterlimit:10;stroke-width:10px"/><path d="M1034.65773,946.37336l-21.08195,43.92286a12.923,12.923,0,0,0,11.65053,18.515h25.7498" style="fill:none;stroke:#000;stroke-miterlimit:10;stroke-width:10px"/><path d="M1153.5457,882.04388a120.64039,120.64039,0,0,0-58.38483,14.97205l59.541,108.3797a1,1,0,0,0,1.8764-.48151V882.08227Q1155.06639,882.0451,1153.5457,882.04388Z" style="stroke:#000;stroke-miterlimit:10;stroke-width:10px"/><path d="M942.0786,625.54876a110.54925,110.54925,0,0,0-32.908,40.41034l117.51708,60.59455Z" style="stroke:#000;stroke-miterlimit:10;stroke-width:10px"/><path d="M1141.68722,599.33632,1126.928,571.38569a12.67909,12.67909,0,0,0-22.597.34008l-13.77414,28.102" style="fill:none;stroke:#000;stroke-miterlimit:10;stroke-width:10px"/><path d="M1102.83873,765.81891,896.424,659.38671a20,20,0,0,0-18.02007-.15716l-56.78738,28.03809a17.08234,17.08234,0,0,0-7.57756,23.22791l30.806,58.9582a17.08233,17.08233,0,0,1-2.98145,19.90964l-34.38709,34.84538a17.08232,17.08232,0,0,0-3.05693,19.76347l40.314,78.99949a17.08232,17.08232,0,0,1-3.61922,20.30773l-33.05825,30.56329a17.08236,17.08236,0,0,0-3.81882,19.90353l2.55118,5.343a17.08235,17.08235,0,0,0,15.41526,9.72189H991.08256a20,20,0,0,0,17.88918-11.057L1111.56212,792.538A19.9999,19.9999,0,0,0,1102.83873,765.81891Z" style="fill:#fff;stroke:#000;stroke-miterlimit:10;stroke-width:10px"/><path d="M1000.02346,698.77857l-49.07909-15.92078a2.33588,2.33588,0,0,1-1.61512-2.2219v-8.39861a2.33588,2.33588,0,0,1,1.53362-2.19379l49.14262-17.97135a2.33574,2.33574,0,0,1,1.46592-.04583l47.83248,14.17405a2.33588,2.33588,0,0,1,1.67222,2.23961v13.15379a2.33587,2.33587,0,0,1-1.63934,2.22961l-47.896,14.96291A2.3359,2.3359,0,0,1,1000.02346,698.77857Z" style="fill:#fff;stroke:#000;stroke-miterlimit:10;stroke-width:10px"/><path d="M977.02423,678.31825l20.35629,6.80509a10.69481,10.69481,0,0,0,6.70867.02409l20.91008-6.82367a2.9056,2.9056,0,0,0,1.968-2.30484l7.70674-48.34744a1.44823,1.44823,0,0,0-1.756-1.63907l-19.709,4.55128a55.863,55.863,0,0,1-24.9653.03974L968.08114,626.035a1.44823,1.44823,0,0,0-1.74646,1.66994l8.75159,48.37491A2.9056,2.9056,0,0,0,977.02423,678.31825Z" style="fill:#fff;stroke:#000;stroke-miterlimit:10;stroke-width:10px"/><path d="M965.94461,626.54876l26.20113-7.779a29.94359,29.94359,0,0,1,17.16.03443l25.70662,7.74457" style="fill:#fff;stroke:#000;stroke-miterlimit:10;stroke-width:10px"/></svg>