<svg xmlns="http://www.w3.org/2000/svg" width="224" height="81" viewBox="0 0 224 81">
  <g fill="none" fill-rule="evenodd">
    <path fill="#000000" d="M97.402,30.23 C97.402,30.657 97.097,30.962 96.67,30.962 L80.993,30.962 C80.81,30.962 80.688,31.084 80.688,31.267 L80.688,38.892 C80.688,39.075 80.81,39.197 80.993,39.197 L90.448,39.197 C90.875,39.197 91.18,39.502 91.18,39.929 L91.18,47.127 C91.18,47.554 90.875,47.859 90.448,47.859 L80.993,47.859 C80.81,47.859 80.688,47.981 80.688,48.164 L80.688,64.268 C80.688,64.695 80.383,65 79.956,65 L71.294,65 C70.867,65 70.562,64.695 70.562,64.268 L70.562,23.032 C70.562,22.605 70.867,22.3 71.294,22.3 L96.67,22.3 C97.097,22.3 97.402,22.605 97.402,23.032 L97.402,30.23 Z M124.8825,11.137 C125.4925,11.137 125.6755,11.564 125.3095,12.052 L120.6735,18.152 C120.4295,18.457 120.1855,18.579 119.8195,18.579 L113.9025,18.579 C113.3535,18.579 113.1705,18.213 113.4145,17.725 L116.8305,11.625 C117.0135,11.32 117.3795,11.137 117.7455,11.137 L124.8825,11.137 Z M131.2875,30.23 C131.2875,30.657 130.9825,30.962 130.5555,30.962 L114.8175,30.962 C114.6345,30.962 114.5125,31.084 114.5125,31.267 L114.5125,38.892 C114.5125,39.075 114.6345,39.197 114.8175,39.197 L124.3335,39.197 C124.7605,39.197 125.0655,39.502 125.0655,39.929 L125.0655,47.127 C125.0655,47.554 124.7605,47.859 124.3335,47.859 L114.8175,47.859 C114.6345,47.859 114.5125,47.981 114.5125,48.164 L114.5125,56.033 C114.5125,56.216 114.6345,56.338 114.8175,56.338 L130.5555,56.338 C130.9825,56.338 131.2875,56.643 131.2875,57.07 L131.2875,64.268 C131.2875,64.695 130.9825,65 130.5555,65 L105.1185,65 C104.6915,65 104.3865,64.695 104.3865,64.268 L104.3865,23.032 C104.3865,22.605 104.6915,22.3 105.1185,22.3 L130.5555,22.3 C130.9825,22.3 131.2875,22.605 131.2875,23.032 L131.2875,30.23 Z M139.98,65 C139.553,65 139.248,64.695 139.248,64.268 L139.248,23.032 C139.248,22.605 139.553,22.3 139.98,22.3 L148.642,22.3 C149.069,22.3 149.374,22.605 149.374,23.032 L149.374,56.033 C149.374,56.216 149.496,56.338 149.679,56.338 L165.661,56.338 C166.088,56.338 166.393,56.643 166.393,57.07 L166.393,64.268 C166.393,64.695 166.088,65 165.661,65 L139.98,65 Z M174.5975,65 C174.1705,65 173.8655,64.695 173.8655,64.268 L173.8655,23.032 C173.8655,22.605 174.1705,22.3 174.5975,22.3 L183.2595,22.3 C183.6865,22.3 183.9915,22.605 183.9915,23.032 L183.9915,64.268 C183.9915,64.695 183.6865,65 183.2595,65 L174.5975,65 Z M192.44,65 C191.891,65 191.647,64.695 191.891,64.146 L201.712,43.833 C201.773,43.65 201.773,43.65 201.712,43.467 L191.891,23.154 C191.647,22.605 191.891,22.3 192.44,22.3 L201.59,22.3 C201.956,22.3 202.261,22.422 202.444,22.849 L207.507,34.256 C207.629,34.5 207.751,34.5 207.873,34.256 L212.997,22.849 C213.18,22.422 213.485,22.3 213.851,22.3 L222.94,22.3 C223.489,22.3 223.733,22.605 223.489,23.154 L213.668,43.467 C213.607,43.65 213.607,43.65 213.668,43.833 L223.489,64.146 C223.733,64.695 223.489,65 222.94,65 L213.912,65 C213.546,65 213.241,64.878 213.058,64.451 L207.873,53.044 C207.751,52.8 207.629,52.8 207.507,53.044 L202.383,64.451 C202.2,64.878 201.895,65 201.529,65 L192.44,65 Z"/>
    <g fill-rule="nonzero">
      <g stroke="#000000" transform="translate(0 20)">
        <path fill="#FF8D5F" d="M20,0 L0.894427191,38.2111456 C0.33137221,39.3372556 0.33137221,40.6627444 0.894427191,41.7888544 L8.89442719,57.7888544 C9.57199525,59.1439905 10.9570477,60 12.472136,60 L27.527864,60 C29.0429523,60 30.4280048,59.1439905 31.1055728,57.7888544 L39.1055728,41.7888544 C39.6686278,40.6627444 39.6686278,39.3372556 39.1055728,38.2111456 L20,0 Z"/>
        <path fill="#FFFFFF" d="M29.5527864,20.8944272 L21.7888544,36.4222912 C21.2948759,37.4102482 20.0935298,37.8106969 19.1055728,37.3167184 C18.718518,37.123191 18.404673,36.809346 18.2111456,36.4222912 L10.4472136,20.8944272 C10.1656861,20.3313722 10.1656861,19.6686278 10.4472136,19.1055728 L18.2111456,3.57770876 C18.7051241,2.58975177 19.9064702,2.18930308 20.8944272,2.68328157 C21.281482,2.87680898 21.595327,3.19065396 21.7888544,3.57770876 L29.5527864,19.1055728 C29.8343139,19.6686278 29.8343139,20.3313722 29.5527864,20.8944272 Z"/>
        <g transform="translate(10 30)">
          <path fill="#FF8D5F" d="M37.527864,30 L12.472136,30 C10.9570477,30 9.57199525,29.1439905 8.89442719,27.7888544 L1.78885438,13.5777088 C0.800897387,11.6017948 1.60179477,9.19910261 3.57770876,8.21114562 L18.2111456,0.894427191 C19.3372556,0.33137221 20.6627444,0.33137221 21.7888544,0.894427191 L44.4222912,12.2111456 C46.3982052,13.1991026 47.1991026,15.6017948 46.2111456,17.5777088 L41.1055728,27.7888544 C40.4280048,29.1439905 39.0429523,30 37.527864,30 Z"/>
          <path fill="#FFFFFF" d="M26.763932,30 L12.472136,30 C10.9570477,30 9.57199525,29.1439905 8.89442719,27.7888544 L1.78885438,13.5777088 C0.800897387,11.6017948 1.60179477,9.19910261 3.57770876,8.21114562 L18.2111456,0.894427191 C19.3372556,0.33137221 20.6627444,0.33137221 21.7888544,0.894427191 L26.0703819,3.03519094 C26.4574367,3.22871834 26.7712817,3.54256332 26.9648091,3.92961813 L29.1055728,8.21114562 C29.5995513,9.19910261 29.1991026,10.4004487 28.2111456,10.8944272 L27.7888544,11.1055728 C26.8008974,11.5995513 26.4004487,12.8008974 26.8944272,13.7888544 L29.1055728,18.2111456 C29.5995513,19.1991026 29.1991026,20.4004487 28.2111456,20.8944272 L27.7888544,21.1055728 C26.8008974,21.5995513 26.4004487,22.8008974 26.8944272,23.7888544 L28.5527864,27.1055728 C29.0467649,28.0935298 28.6463162,29.2948759 27.6583592,29.7888544 C27.3806483,29.9277098 27.0744222,30 26.763932,30 Z"/>
        </g>
        <path d="M8 24L9.10557281 21.7888544C9.35256206 21.2948759 9.9532351 21.0946515 10.4472136 21.3416408 10.640741 21.4384045 10.7976635 21.595327 10.8944272 21.7888544L12 24M28 24L29.1055728 21.7888544C29.3525621 21.2948759 29.9532351 21.0946515 30.4472136 21.3416408 30.640741 21.4384045 30.7976635 21.595327 30.8944272 21.7888544L32 24"/>
      </g>
      <path fill="#FF8D5F" stroke="#000000" d="M1.34164079,2.68328157 L19.1055728,38.2111456 C19.3525621,38.7051241 19.9532351,38.9053485 20.4472136,38.6583592 C20.640741,38.5615955 20.7976635,38.404673 20.8944272,38.2111456 L38.6583592,2.68328157 C38.9053485,2.18930308 38.7051241,1.58863004 38.2111456,1.34164079 C37.9296181,1.20087704 37.5982459,1.20087704 37.3167184,1.34164079 L21.7888544,9.10557281 C20.6627444,9.66862779 19.3372556,9.66862779 18.2111456,9.10557281 L2.68328157,1.34164079 C2.18930308,1.09465154 1.58863004,1.29487588 1.34164079,1.78885438 C1.20087704,2.07038187 1.20087704,2.40175408 1.34164079,2.68328157 Z"/>
      <circle cx="17" cy="23" r="1" fill="#000000"/>
      <circle cx="23" cy="23" r="1" fill="#000000"/>
      <path fill="#FFFFFF" stroke="#000000" d="M9.78885438 15.1055728L18.2111456 10.8944272C18.7051241 10.6474379 18.9053485 10.0467649 18.6583592 9.5527864 18.5615955 9.359259 18.404673 9.20233651 18.2111456 9.10557281L2.68328157 1.34164079C2.18930308 1.09465154 1.58863004 1.29487588 1.34164079 1.78885438 1.20087704 2.07038187 1.20087704 2.40175408 1.34164079 2.68328157L7.10557281 14.2111456C7.59955131 15.1991026 8.80089739 15.5995513 9.78885438 15.1055728zM21.7888544 10.8944272L30.2111456 15.1055728C31.1991026 15.5995513 32.4004487 15.1991026 32.8944272 14.2111456L38.6583592 2.68328157C38.9053485 2.18930308 38.7051241 1.58863004 38.2111456 1.34164079 37.9296181 1.20087704 37.5982459 1.20087704 37.3167184 1.34164079L21.7888544 9.10557281C21.2948759 9.35256206 21.0946515 9.9532351 21.3416408 10.4472136 21.4384045 10.640741 21.595327 10.7976635 21.7888544 10.8944272z"/>
      <path stroke="#000000" d="M20 10L18 11 18.2111456 10.8944272C19.3372556 10.3313722 20.6627444 10.3313722 21.7888544 10.8944272L22 11 20 10zM9 18L8.89442719 17.7888544C8.40044869 16.8008974 8.80089739 15.5995513 9.78885438 15.1055728L10 15M31 18L31.1055728 17.7888544C31.5995513 16.8008974 31.1991026 15.5995513 30.2111456 15.1055728L30 15"/>
      <path fill="#000000" stroke="#000000" d="M21.7888544,35.8944272 L22,36 L20.8944272,38.2111456 C20.6474379,38.7051241 20.0467649,38.9053485 19.5527864,38.6583592 C19.359259,38.5615955 19.2023365,38.404673 19.1055728,38.2111456 L18,36 L18.2111456,35.8944272 C19.3372556,35.3313722 20.6627444,35.3313722 21.7888544,35.8944272 Z"/>
      <path stroke="#000000" d="M17,34 L17.508716,35.0174655 C17.7557089,35.5114514 18.356391,35.7116787 18.8503769,35.4646858 C18.8665887,35.4565798 18.8825772,35.4480346 18.8983246,35.4390596 C19.411903,35.1463532 19.7791281,35 20,35 C20.2208713,35 20.588095,35.1463524 21.1016711,35.4390572 L21.1016681,35.4390626 C21.581497,35.7125337 22.1921673,35.5452477 22.4656384,35.0654188 C22.4746132,35.0496716 22.4831583,35.0336835 22.4912641,35.0174719 L23,34"/>
      <path fill="#000000" stroke="#000000" d="M42.472136,80 L44,80 L35,80 L36.763932,80 C37.8685015,80 38.763932,79.1045695 38.763932,78 C38.763932,77.6895098 38.6916418,77.3832837 38.5527864,77.1055728 L37,74 L38.8944272,77.7888544 C39.5719952,79.1439905 40.9570477,80 42.472136,80 Z"/>
      <path stroke="#000000" d="M16,52 L17.1055728,54.2111456 C17.5995513,55.1991026 17.1991026,56.4004487 16.2111456,56.8944272 L16,57 L20,55 L19.7888544,55.1055728 C18.8008974,55.5995513 17.5995513,55.1991026 17.1055728,54.2111456 L16,52 Z"/>
      <path fill="#000000" stroke="#000000" d="M26.0166149 51.9916925L28 51 18 56 22.1407637 53.9296181C22.9148734 53.5425633 23.5425633 52.9148734 23.9296181 52.1407637L27 46 24.6749741 50.6500518C24.4279849 51.1440303 24.6282092 51.7447033 25.1221877 51.9916925 25.4037152 52.1324563 25.7350874 52.1324563 26.0166149 51.9916925zM32 51L33.9833851 51.9916925C34.4773636 52.2386818 35.0780366 52.0384574 35.3250259 51.544479 35.4657896 51.2629515 35.4657896 50.9315793 35.3250259 50.6500518L34 48 36.0703819 52.1407637C36.4574367 52.9148734 37.0851266 53.5425633 37.8592363 53.9296181L42 56 39.3499482 54.6749741C38.8559697 54.4279849 38.2552967 54.6282092 38.0083075 55.1221877 37.8675437 55.4037152 37.8675437 55.7350874 38.0083075 56.0166149L39 58 37.2629515 54.5259029C36.8758967 53.7517933 36.2482067 53.1241033 35.4740971 52.7370485L32 51zM17 74L19.2763932 78.5527864C19.5233825 79.0467649 19.3231581 79.6474379 18.8291796 79.8944272 18.6903242 79.9638549 18.5372111 80 18.381966 80L16 80 24 80 22.472136 80C20.9570477 80 19.5719952 79.1439905 18.8944272 77.7888544L17 74z"/>
      <path stroke="#000000" d="M13 34L14.1055728 31.7888544C14.3525621 31.2948759 14.9532351 31.0946515 15.4472136 31.3416408 15.640741 31.4384045 15.7976635 31.595327 15.8944272 31.7888544L17 34M23 34L24.1055728 31.7888544C24.3525621 31.2948759 24.9532351 31.0946515 25.4472136 31.3416408 25.640741 31.4384045 25.7976635 31.595327 25.8944272 31.7888544L27 34"/>
    </g>
  </g>
</svg>
