<svg xmlns="http://www.w3.org/2000/svg" width="133" height="181" viewBox="0 0 133 181">
  <g fill="none" fill-rule="evenodd">
    <path fill="#FFFFFF" d="M27.74,137.51 C27.74,137.909 27.455,138.194 27.056,138.194 L12.407,138.194 C12.236,138.194 12.122,138.308 12.122,138.479 L12.122,145.604 C12.122,145.775 12.236,145.889 12.407,145.889 L21.242,145.889 C21.641,145.889 21.926,146.174 21.926,146.573 L21.926,153.299 C21.926,153.698 21.641,153.983 21.242,153.983 L12.407,153.983 C12.236,153.983 12.122,154.097 12.122,154.268 L12.122,169.316 C12.122,169.715 11.837,170 11.438,170 L3.344,170 C2.945,170 2.66,169.715 2.66,169.316 L2.66,130.784 C2.66,130.385 2.945,130.1 3.344,130.1 L27.056,130.1 C27.455,130.1 27.74,130.385 27.74,130.784 L27.74,137.51 Z M49.856,119.669 C50.426,119.669 50.597,120.068 50.255,120.524 L45.923,126.224 C45.695,126.509 45.467,126.623 45.125,126.623 L39.596,126.623 C39.083,126.623 38.912,126.281 39.14,125.825 L42.332,120.125 C42.503,119.84 42.845,119.669 43.187,119.669 L49.856,119.669 Z M55.841,137.51 C55.841,137.909 55.556,138.194 55.157,138.194 L40.451,138.194 C40.28,138.194 40.166,138.308 40.166,138.479 L40.166,145.604 C40.166,145.775 40.28,145.889 40.451,145.889 L49.343,145.889 C49.742,145.889 50.027,146.174 50.027,146.573 L50.027,153.299 C50.027,153.698 49.742,153.983 49.343,153.983 L40.451,153.983 C40.28,153.983 40.166,154.097 40.166,154.268 L40.166,161.621 C40.166,161.792 40.28,161.906 40.451,161.906 L55.157,161.906 C55.556,161.906 55.841,162.191 55.841,162.59 L55.841,169.316 C55.841,169.715 55.556,170 55.157,170 L31.388,170 C30.989,170 30.704,169.715 30.704,169.316 L30.704,130.784 C30.704,130.385 30.989,130.1 31.388,130.1 L55.157,130.1 C55.556,130.1 55.841,130.385 55.841,130.784 L55.841,137.51 Z M60.401,170 C60.002,170 59.717,169.715 59.717,169.316 L59.717,130.784 C59.717,130.385 60.002,130.1 60.401,130.1 L68.495,130.1 C68.894,130.1 69.179,130.385 69.179,130.784 L69.179,161.621 C69.179,161.792 69.293,161.906 69.464,161.906 L84.398,161.906 C84.797,161.906 85.082,162.191 85.082,162.59 L85.082,169.316 C85.082,169.715 84.797,170 84.398,170 L60.401,170 Z M89.186,170 C88.787,170 88.502,169.715 88.502,169.316 L88.502,130.784 C88.502,130.385 88.787,130.1 89.186,130.1 L97.28,130.1 C97.679,130.1 97.964,130.385 97.964,130.784 L97.964,169.316 C97.964,169.715 97.679,170 97.28,170 L89.186,170 Z M102.296,170 C101.783,170 101.555,169.715 101.783,169.202 L110.96,150.221 C111.017,150.05 111.017,150.05 110.96,149.879 L101.783,130.898 C101.555,130.385 101.783,130.1 102.296,130.1 L110.846,130.1 C111.188,130.1 111.473,130.214 111.644,130.613 L116.375,141.272 C116.489,141.5 116.603,141.5 116.717,141.272 L121.505,130.613 C121.676,130.214 121.961,130.1 122.303,130.1 L130.796,130.1 C131.309,130.1 131.537,130.385 131.309,130.898 L122.132,149.879 C122.075,150.05 122.075,150.05 122.132,150.221 L131.309,169.202 C131.537,169.715 131.309,170 130.796,170 L122.36,170 C122.018,170 121.733,169.886 121.562,169.487 L116.717,158.828 C116.603,158.6 116.489,158.6 116.375,158.828 L111.587,169.487 C111.416,169.886 111.131,170 110.789,170 L102.296,170 Z"/>
    <g fill-rule="nonzero" transform="translate(32)">
      <g stroke="#000000" stroke-width="1.41" transform="translate(0 26.573)">
        <path fill="#FF8D5F" d="M28.2089552,0 L1.26154283,53.8948248 C0.467383191,55.4831441 0.467383191,57.3526768 1.26154283,58.9409961 L12.5451249,81.5081603 C13.5007993,83.419509 15.4543434,84.6268657 17.5912962,84.6268657 L38.8266142,84.6268657 C40.963567,84.6268657 42.9171112,83.419509 43.8727855,81.5081603 L55.1563676,58.9409961 C55.9505273,57.3526768 55.9505273,55.4831441 55.1563676,53.8948248 L28.2089552,0 Z"/>
        <path fill="#FFFFFF" d="M41.6826614,29.4704981 L30.7320409,51.3717391 C30.03531,52.7652009 28.3408741,53.3300128 26.9474124,52.633282 C26.4014918,52.3603217 25.9588299,51.9176597 25.6858696,51.3717391 L14.735249,29.4704981 C14.3381692,28.6763384 14.3381692,27.741572 14.735249,26.9474124 L25.6858696,5.04617132 C26.3826004,3.65270958 28.0770363,3.08789762 29.4704981,3.78462849 C30.0164186,4.05758878 30.4590806,4.50025073 30.7320409,5.04617132 L41.6826614,26.9474124 C42.0797412,27.741572 42.0797412,28.6763384 41.6826614,29.4704981 Z"/>
        <g transform="translate(15.74 42.313)">
          <path fill="#FF8D5F" d="M51.2947282,42.3134328 L15.9549326,42.3134328 C13.8179798,42.3134328 11.8644356,41.1060761 10.9087613,39.1947274 L0.886722022,19.1506489 C-0.50673971,16.3637255 0.622884217,12.9748537 3.40980768,11.581392 L24.0495059,1.26154283 C25.6378252,0.467383191 27.507358,0.467383191 29.0956772,1.26154283 L61.0189576,17.223183 C63.805881,18.6166447 64.935505,22.0055165 63.5420432,24.79244 L56.3408995,39.1947274 C55.3852252,41.1060761 53.431681,42.3134328 51.2947282,42.3134328 Z"/>
          <path fill="#FFFFFF" d="M36.1127644,42.3134328 L15.9549326,42.3134328 C13.8179798,42.3134328 11.8644356,41.1060761 10.9087613,39.1947274 L0.886722022,19.1506489 C-0.50673971,16.3637255 0.622884217,12.9748537 3.40980768,11.581392 L24.0495059,1.26154283 C25.6378252,0.467383191 27.507358,0.467383191 29.0956772,1.26154283 L35.1345481,4.28097826 C35.6804687,4.55393855 36.1231306,4.99660051 36.3960909,5.54252109 L39.4155264,11.581392 C40.1122572,12.9748537 39.5474453,14.6692896 38.1539835,15.3660204 L37.5583638,15.6638303 C36.1649021,16.3605612 35.6000901,18.0549971 36.296821,19.4484588 L39.4155264,25.6858696 C40.1122572,27.0793313 39.5474453,28.7737672 38.1539835,29.4704981 L37.5583638,29.7683079 C36.1649021,30.4650388 35.6000901,32.1594747 36.296821,33.5529364 L38.63585,38.2309945 C39.3325809,39.6244562 38.7677689,41.3188921 37.3743072,42.015623 C36.9826105,42.2114713 36.5506946,42.3134328 36.1127644,42.3134328 Z"/>
        </g>
        <path d="M11.2835821 33.8507463L12.8429348 30.7320409C13.1913002 30.03531 14.0385182 29.752904 14.735249 30.1012695 15.0082093 30.2377496 15.2295403 30.4590806 15.3660204 30.7320409L16.9253731 33.8507463M39.4925373 33.8507463L41.05189 30.7320409C41.4002554 30.03531 42.2474734 29.752904 42.9442043 30.1012695 43.2171645 30.2377496 43.4384955 30.4590806 43.5749757 30.7320409L45.1343284 33.8507463"/>
      </g>
      <path fill="#FF8D5F" stroke="#000000" stroke-width="1.41" d="M1.89231424,2.14826485 L26.9474124,52.2584612 C27.2957778,52.955192 28.1429958,53.237598 28.8397266,52.8892326 C29.1126869,52.7527524 29.3340179,52.5314214 29.4704981,52.2584612 L54.5255962,2.14826485 C54.8739616,1.45153399 54.5915557,0.60431604 53.8948248,0.255950607 C53.497745,0.0574106978 53.0303618,0.0574106978 52.633282,0.255950607 L30.7320409,11.2065711 C29.1437216,12.0007308 27.2741888,12.0007308 25.6858696,11.2065711 L3.78462849,0.255950607 C3.08789762,-0.0924148256 2.24067968,0.189991156 1.89231424,0.886722022 C1.69377433,1.28380184 1.69377433,1.75118503 1.89231424,2.14826485 Z"/>
      <circle cx="23.978" cy="30.804" r="1.41" fill="#000000"/>
      <circle cx="32.44" cy="30.804" r="1.41" fill="#000000"/>
      <path fill="#FFFFFF" stroke="#000000" stroke-width="1.41" d="M13.8066677 19.6692577L25.6858696 13.7296568C26.3826004 13.3812914 26.6650064 12.5340734 26.316641 11.8373426 26.1801608 11.5643823 25.9588299 11.3430513 25.6858696 11.2065711L3.78462849.255950607C3.08789762-.0924148256 2.24067968.189991156 1.89231424.886722022 1.69377433 1.28380184 1.69377433 1.75118503 1.89231424 2.14826485L10.0220393 18.4077149C10.7187701 19.8011766 12.413206 20.3659886 13.8066677 19.6692577zM30.7320409 13.7296568L42.6112427 19.6692577C44.0047044 20.3659886 45.6991403 19.8011766 46.3958712 18.4077149L54.5255962 2.14826485C54.8739616 1.45153399 54.5915557.60431604 53.8948248.255950607 53.497745.0574106978 53.0303618.0574106978 52.633282.255950607L30.7320409 11.2065711C30.03531 11.5549366 29.752904 12.4021545 30.1012695 13.0988854 30.2377496 13.3718457 30.4590806 13.5931767 30.7320409 13.7296568z"/>
      <path stroke="#000000" stroke-width="1.41" d="M28.2089552 12.468114L25.3880597 13.8785617 25.6858696 13.7296568C27.2741888 12.9354972 29.1437216 12.9354972 30.7320409 13.7296568L31.0298507 13.8785617 28.2089552 12.468114zM12.6940299 23.7516961L12.5451249 23.4538862C11.8483941 22.0604245 12.413206 20.3659886 13.8066677 19.6692577L14.1044776 19.5203528M43.7238806 23.7516961L43.8727855 23.4538862C44.5695164 22.0604245 44.0047044 20.3659886 42.6112427 19.6692577L42.3134328 19.5203528"/>
      <path fill="#000000" stroke="#000000" stroke-width="1.41" d="M30.7320409,48.9908508 L31.0298507,49.1397558 L29.4704981,52.2584612 C29.1221326,52.955192 28.2749147,53.237598 27.5781838,52.8892326 C27.3052235,52.7527524 27.0838925,52.5314214 26.9474124,52.2584612 L25.3880597,49.1397558 L25.6858696,48.9908508 C27.2741888,48.1966912 29.1437216,48.1966912 30.7320409,48.9908508 Z"/>
      <path stroke="#000000" stroke-width="1.41" d="M23.9776119,46.3188602 L24.6951293,47.7539421 C25.0434999,48.4506834 25.8907305,48.7330936 26.5874719,48.384723 C26.6103378,48.37329 26.6328888,48.3612374 26.6550996,48.3485787 C27.3794751,47.9357316 27.8974269,47.729308 28.2089552,47.729308 C28.5204827,47.729308 29.0384325,47.9357304 29.7628048,48.3485753 L29.7628005,48.3485829 C30.4395741,48.7342996 31.3008927,48.4983514 31.6866094,47.8215777 C31.6992679,47.7993673 31.7113203,47.7768168 31.722753,47.7539512 L32.4402985,46.3188602"/>
      <path fill="#000000" stroke="#000000" stroke-width="1.41" d="M59.9047291,111.199457 L62.0597015,111.199457 L49.3656716,111.199457 L51.8536056,111.199457 C53.4115432,111.199457 54.6745011,109.936499 54.6745011,108.378562 C54.6745011,107.940632 54.5725396,107.508716 54.3766913,107.117019 L52.1865672,102.736771 L54.8585578,108.080752 C55.8142321,109.992101 57.7677763,111.199457 59.9047291,111.199457 Z"/>
      <path stroke="#000000" stroke-width="1.41" d="M22.5671642,71.7069199 L24.1265169,74.8256253 C24.8232477,76.2190871 24.2584358,77.913523 22.864974,78.6102538 L22.5671642,78.7591588 L28.2089552,75.9382632 L27.9111454,76.0871682 C26.5176836,76.783899 24.8232477,76.2190871 24.1265169,74.8256253 L22.5671642,71.7069199 Z"/>
      <path fill="#000000" stroke="#000000" stroke-width="1.41" d="M36.6950762 71.6952027L39.4925373 70.2964722 25.3880597 77.348711 31.2283907 74.4285455C32.3202318 73.8826249 33.2055557 72.997301 33.7514763 71.9054599L38.0820896 63.2442334 34.802762 69.8028885C34.4543966 70.4996193 34.7368026 71.3468373 35.4335334 71.6952027 35.8306132 71.8937426 36.2979964 71.8937426 36.6950762 71.6952027zM45.1343284 70.2964722L47.9317894 71.6952027C48.6285203 72.0435681 49.4757382 71.7611622 49.8241037 71.0644313 50.0226436 70.6673515 50.0226436 70.1999683 49.8241037 69.8028885L47.9552239 66.0651289 50.8753894 71.9054599C51.4213099 72.997301 52.3066339 73.8826249 53.398475 74.4285455L59.238806 77.348711 55.5010464 75.4798312C54.8043155 75.1314658 53.9570976 75.4138718 53.6087322 76.1106026 53.4101922 76.5076824 53.4101922 76.9750656 53.6087322 77.3721454L55.0074627 80.1696065 52.5574465 75.2695741C52.0115259 74.1777329 51.126202 73.292409 50.0343608 72.7464884L45.1343284 70.2964722zM23.9776119 102.736771L27.1883456 109.158238C27.5367111 109.854969 27.2543051 110.702187 26.5575742 111.050552 26.3617259 111.148476 26.1457679 111.199457 25.9268028 111.199457L22.5671642 111.199457 33.8507463 111.199457 31.6957738 111.199457C29.558821 111.199457 27.6052769 109.992101 26.6496025 108.080752L23.9776119 102.736771z"/>
      <path stroke="#000000" stroke-width="1.41" d="M18.3358209 46.3188602L19.8951736 43.2001549C20.243539 42.503424 21.090757 42.221018 21.7874878 42.5693834 22.0604481 42.7058636 22.2817791 42.9271946 22.4182592 43.2001549L23.9776119 46.3188602M32.4402985 46.3188602L33.9996512 43.2001549C34.3480166 42.503424 35.1952346 42.221018 35.8919654 42.5693834 36.1649257 42.7058636 36.3862567 42.9271946 36.5227369 43.2001549L38.0820896 46.3188602"/>
    </g>
  </g>
</svg>
