<svg xmlns="http://www.w3.org/2000/svg" viewBox="0 0 119.47266 134.734"><title>logo_vertical-fox</title><text transform="translate(-0.00024 125.2633)" style="isolation:isolate;font-size:41px;fill:#fff;font-family:Barlow-SemiBold, Barlow;font-weight:800;letter-spacing:0.06199980945121951em">FÉLIX</text><path d="M70.61414,50.137l-4.4306-8.8612a.51011.51011,0,0,0-.89443,0L60.85852,50.137a.50677.50677,0,0,0,.67082.67082l2.19453-1.09727a4.5,4.5,0,0,1,4.02492,0l2.19453,1.09727A.50677.50677,0,0,0,70.61414,50.137ZM52.39469,53.69805,46.18354,41.27576a.51011.51011,0,0,0-.89443,0L37.078,57.69805a3.5,3.5,0,0,0,0,3.1305l8,16a3.5,3.5,0,0,0,3.13049,1.93475h5.90983a.5.5,0,0,0,.44722-.72361L47.078,63.06462a4.5,4.5,0,0,1,2.01246-6.03739l2.63344-1.31672A1.5,1.5,0,0,0,52.39469,53.69805Zm5.38569-19.64088,8.61431-17.22862a1.5,1.5,0,0,0-.67082-2.01246l-8.42229-4.21115a3.5,3.5,0,0,0-3.1305,0l-8.42229,4.21115a1.5,1.5,0,0,0-.67082,2.01246L53.694,34.06065a.5.5,0,0,0,.66908.22012l.024-.01281a2.29321,2.29321,0,0,1,2.69851,0,.5.5,0,0,0,.682-.18682ZM75.28912,57.25084a2.5,2.5,0,0,1-1.118,3.3541l-.42229.21115a1.5,1.5,0,0,0-.67082,2.01246l2.21115,4.42229a2.5,2.5,0,0,1-1.118,3.35411l-.42229.21114a1.5,1.5,0,0,0-.67082,2.01246l2,4a3.5,3.5,0,0,0,3.1305,1.93475h5.05572a3.5,3.5,0,0,0,3.1305-1.93475L91.50026,66.6174A3.5,3.5,0,0,0,89.935,61.92166L74.86267,54.38549a.50677.50677,0,0,0-.67082.67082Z" style="fill:#ff8d5f;stroke:#ff8d5f"/><path d="M59.21873,51.18046,64.8419,39.93412a1.5,1.5,0,0,0,0-1.34164l-3.65836-7.31672a.51011.51011,0,0,0-.89443,0L57.078,37.69805a1.51434,1.51434,0,0,1-2.68328,0l-3.21115-6.42229a.51011.51011,0,0,0-.89443,0l-3.65835,7.31672a1.5,1.5,0,0,0,0,1.34164l6.65835,13.31672a1.5,1.5,0,0,0,2.01247.67082l2.3519-1.176A3.5,3.5,0,0,0,59.21873,51.18046ZM45.30158,13.92166l8.42229-4.21115a.50989.50989,0,0,0,0-.89442L38.196,1.05216a.50677.50677,0,0,0-.67082.67082l5.76393,11.52786A1.5,1.5,0,0,0,45.30158,13.92166ZM73.27665,1.05216,57.74879,8.81609a.50988.50988,0,0,0,0,.89442l8.42229,4.21115a1.5,1.5,0,0,0,2.01246-.67082L73.94748,1.723A.50678.50678,0,0,0,73.27665,1.05216Zm-2.28983,51.3954-3.68525-1.84262a3.5,3.5,0,0,0-3.13049,0L49.53764,57.92166A3.5,3.5,0,0,0,47.9724,62.6174L55.078,76.82855a3.5,3.5,0,0,0,3.13049,1.93475h14.2918a1.51492,1.51492,0,0,0,1.34164-2.17082l-1.65836-3.31672a2.5,2.5,0,0,1,1.118-3.3541l.4223-.21115a1.5,1.5,0,0,0,.67082-2.01246l-2.21115-4.42229a2.5,2.5,0,0,1,1.118-3.3541l.4223-.21115a1.5,1.5,0,0,0,.67082-2.01246l-1.84262-3.68524A3.5,3.5,0,0,0,70.98682,52.44756Z" style="fill:#fff;stroke:#fff"/><path d="M72.25393,51.18046a3.5,3.5,0,0,0,1.56524,1.56524l16.56306,8.28153a4.5,4.5,0,0,1,2.01246,6.03739L87.28912,77.27576a4.5,4.5,0,0,1-4.02493,2.48754H48.20846a4.5,4.5,0,0,1-4.02492-2.48754l-8-16a4.5,4.5,0,0,1,0-4.02492L50.17731,29.2633,36.63076,2.17019A1.51073,1.51073,0,0,1,38.64322.15773L54.17108,7.92166a3.5,3.5,0,0,0,3.1305,0L72.82944.15773A1.51073,1.51073,0,0,1,74.8419,2.17019L61.29535,29.2633ZM70.61414,50.137l-4.4306-8.8612a.51011.51011,0,0,0-.89443,0L60.85852,50.137a.50677.50677,0,0,0,.67082.67082l2.19453-1.09727a4.5,4.5,0,0,1,4.02492,0l2.19453,1.09727A.50677.50677,0,0,0,70.61414,50.137Zm-11.39541,1.0435L64.8419,39.93412a1.5,1.5,0,0,0,0-1.34164l-3.65836-7.31672a.51011.51011,0,0,0-.89443,0L57.078,37.69805a1.51434,1.51434,0,0,1-2.68328,0l-3.21115-6.42229a.51011.51011,0,0,0-.89443,0l-3.65835,7.31672a1.5,1.5,0,0,0,0,1.34164l6.65835,13.31672a1.5,1.5,0,0,0,2.01247.67082l2.3519-1.176A3.5,3.5,0,0,0,59.21873,51.18046Zm-6.824,2.51759L46.18354,41.27576a.51011.51011,0,0,0-.89443,0L37.078,57.69805a3.5,3.5,0,0,0,0,3.1305l8,16a3.5,3.5,0,0,0,3.13049,1.93475h5.90983a.5.5,0,0,0,.44722-.72361L47.078,63.06462a4.5,4.5,0,0,1,2.01246-6.03739l2.63344-1.31672A1.5,1.5,0,0,0,52.39469,53.69805Zm5.38569-19.64088,8.61431-17.22862a1.5,1.5,0,0,0-.67082-2.01246l-8.42229-4.21115a3.5,3.5,0,0,0-3.1305,0l-8.42229,4.21115a1.5,1.5,0,0,0-.67082,2.01246L53.694,34.06065a.5.5,0,0,0,.66908.22012l.024-.01281a2.29321,2.29321,0,0,1,2.69851,0,.5.5,0,0,0,.682-.18682ZM45.30158,13.92166l8.42229-4.21115a.50989.50989,0,0,0,0-.89442L38.196,1.05216a.50677.50677,0,0,0-.67082.67082l5.76393,11.52786A1.5,1.5,0,0,0,45.30158,13.92166ZM73.27665,1.05216,57.74879,8.81609a.50988.50988,0,0,0,0,.89442l8.42229,4.21115a1.5,1.5,0,0,0,2.01246-.67082L73.94748,1.723A.50678.50678,0,0,0,73.27665,1.05216Zm-2.28983,51.3954-3.68525-1.84262a3.5,3.5,0,0,0-3.13049,0L49.53764,57.92166A3.5,3.5,0,0,0,47.9724,62.6174L55.078,76.82855a3.5,3.5,0,0,0,3.13049,1.93475h14.2918a1.51492,1.51492,0,0,0,1.34164-2.17082l-1.65836-3.31672a2.5,2.5,0,0,1,1.118-3.3541l.4223-.21115a1.5,1.5,0,0,0,.67082-2.01246l-2.21115-4.42229a2.5,2.5,0,0,1,1.118-3.3541l.4223-.21115a1.5,1.5,0,0,0,.67082-2.01246l-1.84262-3.68524A3.5,3.5,0,0,0,70.98682,52.44756Zm4.3023,4.80328a2.5,2.5,0,0,1-1.118,3.3541l-.42229.21115a1.5,1.5,0,0,0-.67082,2.01246l2.21115,4.42229a2.5,2.5,0,0,1-1.118,3.35411l-.42229.21114a1.5,1.5,0,0,0-.67082,2.01246l2,4a3.5,3.5,0,0,0,3.1305,1.93475h5.05572a3.5,3.5,0,0,0,3.1305-1.93475L91.50026,66.6174A3.5,3.5,0,0,0,89.935,61.92166L74.86267,54.38549a.50677.50677,0,0,0-.67082.67082ZM52.73633,23.2633a1.00066,1.00066,0,0,1,0-2A1.00066,1.00066,0,0,1,52.73633,23.2633Zm6,0a1.00066,1.00066,0,0,1,0-2A1.00066,1.00066,0,0,1,58.73633,23.2633Z"/></svg>