<svg xmlns="http://www.w3.org/2000/svg" width="142" height="99" viewBox="0 0 142 99">
  <g fill="none" fill-rule="evenodd">
    <path fill="#000000" fill-rule="nonzero" d="M64.92219 26.3530412C64.9224873 23.7386189 63.35578 21.3814633 60.9526531 20.3807601 58.5495262 19.380057 55.7832599 19.9328882 53.9438158 21.7814583 52.1043716 23.6300284 51.5540163 26.4102736 52.5493907 28.8257134 53.5447651 31.2411533 55.8898368 32.8160828 58.491055 32.8160828 62.0423354 32.8154753 64.9211797 29.9223483 64.92219 26.3530412M64.92219 46.2418447C64.9225682 43.6274041 63.3559122 41.2701868 60.9527918 40.2694203 58.5496713 39.2686538 55.7833721 39.8214354 53.9438865 41.6699897 52.1044009 43.518544 51.5540089 46.2988049 52.5493716 48.7142695 53.5447343 51.129734 55.8898186 52.7046853 58.491055 52.7046853 62.0422299 52.7040113 64.9210031 49.8110457 64.92219 46.2418447M64.92219 6.46472513C64.9225844 3.85028087 63.3559387 1.49305127 60.9528195.492272108 58.5497003-.50850705 55.7833945.0442646498 53.9439007 1.89281578 52.1044068 3.74136691 51.5540074 6.52163095 52.5493678 8.93710044 53.5447281 11.3525699 55.889815 12.9275255 58.491055 12.9275255 62.0423251 12.9271206 64.9212486 10.0340219 64.92219 6.46472513"/>
    <polygon fill="#FF0F00" points="8.515 51.71 2.6 51.71 1.6 34.181 1.6 0 9.515 0 9.515 34.181 8.515 51.71"/>
    <polygon fill="#000000" fill-rule="nonzero" points="41.511 51.71 35.596 51.71 34.596 34.181 34.596 0 42.511 0 42.511 34.181 41.511 51.71"/>
    <polygon fill="#000000" fill-rule="nonzero" points="140.107 51.71 134.191 51.71 133.191 32.639 133.191 0 141.107 0 141.107 32.639 140.107 51.71"/>
    <polygon fill="#000000" fill-rule="nonzero" points="84.545 51.71 76.795 51.71 97.737 0 105.488 0 84.545 51.71"/>
    <path fill="#FF0F00" d="M28.42153,26.3530412 C28.4218212,23.7386259 26.8551132,21.3814801 24.4519909,20.3807843 C22.0488685,19.3800885 19.2826106,19.9329231 17.4431743,21.7814912 C15.603738,23.6300592 15.0533879,26.4102975 16.0487624,28.8257297 C17.044137,31.2411619 19.3892038,32.8160848 21.990415,32.8160828 C25.5416967,32.8154864 28.4205418,29.9223496 28.42153,26.3530412"/>
    <path fill="#000000" fill-rule="nonzero" d="M127.15553 60.5263738C120.432985 61.5654014 113.214925 56.4014257 112.49146 50.1516813 111.72946 43.8737998 116.66896 38.9426299 122.76699 39.8953064 124.94777 40.2280652 126.809143 41.6556195 127.704225 43.6818501 128.599306 45.7080807 128.404497 48.0531923 127.1875 49.9021862 124.508 53.7268075 119.462955 52.9357975 116.800955 52.1818497 115.618455 51.8139617 114.970955 52.0703968 115.469955 53.1375163 116.607455 55.8225471 120.9875 60.1826679 127.142015 59.768481L127.155515 60.5263738 127.15553 60.5263738zM2.278525 68.8027034L1.408345 68.8027034 1.408345 79.2073672 2.278525 79.2073672 2.278525 74.2161239 7.409565 74.2161239 7.409565 79.2073672 8.279745 79.2073672 8.279745 68.8027034 7.409565 68.8027034 7.409565 73.4018866 2.278525 73.4018866 2.278525 68.8027034zM16.02132 79.2073672L15.091155 79.2073672 18.63186 68.8027034 19.44205 68.8027034 22.982755 79.2073672 22.067575 79.2073672 21.212385 76.6740326 16.8615 76.6740326 16.02133 79.2073672 16.02132 79.2073672zM19.036955 70.2050711L17.131555 75.8597702 20.942355 75.8597702 19.036955 70.2050711zM33.334885 79.2978592C35.58534 79.2978592 37.010635 78.0161108 37.010635 74.9550408L37.010635 68.8027034 36.14044 68.8027034 36.14044 74.9550609C36.14044 77.3677462 35.150235 78.4835767 33.334885 78.4835767 31.519535 78.4835767 30.529295 77.3677412 30.529295 74.9550609L30.529295 68.8027034 29.65913 68.8027034 29.65913 74.9550609C29.65913 78.0161309 31.084425 79.2978793 33.334885 79.2978793L33.334885 79.2978592zM43.792 68.8027034L43.792 69.6169709 47.077665 69.6169709 47.077665 79.2073672 47.94784 79.2073672 47.94784 69.6169709 51.23352 69.6169709 51.23352 68.8027034 43.792 68.8027034zM58.01489 68.8027034L58.01489 79.2073672 64.106145 79.2073672 64.106125 78.3930947 58.885105 78.3930947 58.885105 74.2312252 63.656065 74.2312252 63.656065 73.4169175 58.885105 73.4169175 58.885105 69.6169709 64.106145 69.6169709 64.106145 68.8027034 58.01489 68.8027034zM80.4745 68.8027034L80.4745 79.2073672 86.56577 79.2073672 86.56575 78.3930947 81.34468 78.3930947 81.34468 74.2312252 86.11568 74.2312252 86.11568 73.4169175 81.34468 73.4169175 81.34468 69.6169709 86.56577 69.6169709 86.56577 68.8027034 80.4745 68.8027034zM82.935 67.7923858L83.730185 67.7923858 85.035435 65.8471514 84.01522 65.8471514 82.935 67.7923858zM100.69864 71.9542604C100.368575 69.6772604 98.89828 68.7122114 97.052915 68.7122114 94.80246 68.7122114 93.377165 70.0241222 93.377165 73.3867904L93.377165 74.6232752C93.377165 77.9859434 94.80246 79.2978542 97.052915 79.2978542 98.82325 79.2978542 100.35357 78.3629324 100.683635 76.0256429L99.84347 76.0256429C99.5134 77.6843804 98.553205 78.4835566 97.052915 78.4835566 95.297535 78.4835566 94.247325 77.473244 94.247325 74.6232803L94.247325 73.3867904C94.247325 70.5518927 95.28255 69.526514 97.052915 69.526514 98.46319 69.526514 99.498415 70.190005 99.84347 71.9542754L100.69864 71.9542604zM114.711535 74.6232752C114.711535 77.9105526 113.256215 79.2978542 111.03577 79.2978542 108.815325 79.2978542 107.360015 77.9105526 107.360015 74.6232752L107.360015 73.3867904C107.360015 70.1146142 108.815305 68.7122114 111.03577 68.7122114 113.256235 68.7122114 114.711535 70.1146142 114.711535 73.3867904L114.711535 74.6232752zM108.23018 73.3867904L108.23018 74.6232752C108.23018 77.4431068 109.34041 78.4835516 111.03577 78.4835516 112.73113 78.4835516 113.841325 77.4431068 113.841325 74.6232752L113.841325 73.3867904C113.841325 70.582055 112.731095 69.526514 111.03577 69.526514 109.340445 69.526514 108.23018 70.582055 108.23018 73.3867904zM123.03821 68.8027034L122.16803 68.8027034 122.16803 79.2073672 128.2593 79.2073672 128.2593 78.3930947 123.03821 78.3930947 123.03821 68.8027034zM134.965655 68.8027034L134.965655 79.2073672 141.05689 79.2073672 141.05689 78.3930947 135.83585 78.3930947 135.83585 74.2312252 140.606815 74.2312252 140.606815 73.4169175 135.83585 73.4169175 135.83585 69.6169709 141.05689 69.6169709 141.05689 68.8027034 134.965655 68.8027034zM2.532615 98.0800287L0 98.0800287 4.052205 86.370761 6.314705 86.370761 10.36691 98.0800287 7.851165 98.0800287 7.14204 95.8569611 3.24178 95.8569611 2.532615 98.0800287zM5.18345 89.7308109L3.8665 93.8545127 6.50042 93.8545127 5.18346 89.7307958 5.18345 89.7308109zM13.82816 86.370761L11.464375 86.370761 11.464375 98.0800287 18.724595 98.0800287 18.724595 96.0775904 13.82816 96.0775904 13.82816 86.370761zM19.974025 86.370761L23.874245 86.370761C26.62638 86.370761 28.129085 87.355027 28.129085 89.442339 28.1667095 90.5098292 27.5600829 91.4947502 26.592645 91.9369078 27.7950248 92.305964 28.5856752 93.4592836 28.50055 94.7199637 28.50055 96.5357392 27.31866 98.0800136 24.24571 98.0800136L19.974025 98.0800136 19.974025 86.370761zM22.337805 93.0060174L22.337805 96.0775904 24.043115 96.0775904C25.461405 96.0775904 26.136765 95.5345176 26.136765 94.533321 26.136765 93.4302499 25.41072 93.0060174 23.82363 93.0060174L22.337805 93.0060174zM22.337805 88.3732294L22.337805 91.0035841 23.908045 91.0035841C25.20812 91.0035841 25.76527 90.4944828 25.76527 89.6629381 25.76527 88.8483943 25.36007 88.3732294 23.6548 88.3732294L22.337805 88.3732294zM30.205855 86.370761L30.205855 98.0800287 37.466045 98.0800287 37.466045 96.0775904 32.56964 96.0775904 32.56964 93.022983 36.95955 93.022983 36.95955 91.0205497 32.56964 91.0205497 32.56964 88.3902002 37.466045 88.3902002 37.466045 86.370761 30.205855 86.370761zM48.05246 98.0800287L45.452275 98.0800287 43.35864 93.4811772 41.4676 93.4811772 41.4676 98.0800287 39.103815 98.0800287 39.103815 86.370761 43.274205 86.370761C45.958805 86.370761 47.63033 87.5756563 47.63033 89.9514402 47.7271938 91.3248681 46.9179247 92.6000702 45.63799 93.0908609L48.05246 98.0800287zM41.4676 91.4787439L43.054725 91.4787439C44.4561 91.4787439 45.266545 91.1732711 45.266545 89.9514402 45.266545 88.7296093 44.4561 88.3902002 43.054725 88.3902002L41.4676 88.3902002 41.4676 91.4787439zM48.3395 86.370761L48.3395 88.3902002 51.5475 88.3902002 51.5475 98.0800287 53.911285 98.0800287 53.911285 88.3902002 57.119285 88.3902002 57.119285 86.370761 48.3395 86.370761zM61.323435 96.4848422C62.117015 97.6218597 63.34954 98.2327399 65.02108 98.2327399 67.46928 98.2327399 68.971985 96.960007 68.971985 93.5829863L68.971985 86.370761 66.608185 86.370761 66.608185 93.5829914C66.608185 95.6193661 66.00037 96.2303117 64.86913 96.2303117 64.2337315 96.2258808 63.6407973 95.9088857 63.282005 95.3818013L61.323435 96.4848723 61.323435 96.4848422zM72.247515 98.0800237L69.7149 98.0800237 73.767105 86.3707559 76.029575 86.3707559 80.0818 98.0800237 77.56605 98.0800237 76.8569 95.856956 72.95665 95.856956 72.247505 98.0800237 72.247515 98.0800237zM74.89833 89.7308059L73.581375 93.8545227 76.215305 93.8545227 74.89833 89.7308059zM89.21614 90.0023423C88.82779 87.4398655 87.257585 86.2180396 84.94445 86.2180396 82.3274 86.2180396 80.48701 87.7792445 80.48701 91.3938953L80.48701 93.0569194C80.48701 96.6375937 82.3274 98.2327399 84.94445 98.2327399 87.342 98.2327399 88.810925 97.0787869 89.199255 94.4484725L86.953655 94.4484725C86.700405 95.6363268 86.126345 96.2303066 84.94445 96.2303066 83.576825 96.2303066 82.850795 95.2290397 82.850795 93.0569194L82.850795 91.3938953C82.850795 89.1538319 83.576825 88.2205031 84.94445 88.2205031 86.09256 88.2205031 86.734175 88.8992963 86.953655 90.0023423L89.21614 90.0023423zM99.32979 93.0569194C99.3570717 94.0171887 99.1785591 94.9721245 98.80636 95.856956L100.42725 97.248484 99.17781 98.7418462 97.607605 97.4012354C96.8061356 97.9749857 95.8388562 98.2672323 94.85547 98.232745 92.23842 98.232745 90.39805 96.6375987 90.39805 93.0569245L90.39805 91.3939004C90.39805 87.7792495 92.23842 86.2180447 94.85547 86.2180447 97.489405 86.2180447 99.32979 87.7792495 99.32979 91.3939004L99.32979 93.0569245 99.32979 93.0569194zM92.761835 91.3938953L92.761835 93.0569194C92.761835 95.2969477 93.487835 96.2303066 94.85547 96.2303066 95.2285582 96.2437349 95.5976707 96.1495091 95.919165 95.9587703L94.60222 94.8217879 95.885395 93.3114851 96.881575 94.1939018C96.9380772 93.8175754 96.9663003 93.4375064 96.966005 93.0569194L96.966005 91.3938953C96.966005 89.1538319 96.223095 88.2205031 94.85547 88.2205031 93.487845 88.2205031 92.761835 89.1538319 92.761835 91.3938953zM107.974505 86.3707559L107.974505 93.3453914C107.974505 95.3478598 107.316005 96.2303117 105.863965 96.2303117 104.411925 96.2303117 103.75343 95.3478548 103.75343 93.3453914L103.75343 86.370761 101.389645 86.3707559 101.389645 93.3453914C101.389645 96.7902898 103.280685 98.232745 105.863965 98.232745 108.447245 98.232745 110.33829 96.7902848 110.33829 93.3284257L110.33829 86.3707559 107.974505 86.3707559zM113.90085 98.0800237L111.368215 98.0800237 115.42044 86.3707559 117.68291 86.3707559 121.73513 98.0800237 119.219365 98.0800237 118.510235 95.856956 114.61 95.856956 113.900855 98.0800237 113.90085 98.0800237zM116.551665 89.7308059L115.234705 93.8545227 117.868655 93.8545227 116.551655 89.7308059 116.551665 89.7308059zM131.78122 98.0800287L129.18105 98.0800237 127.087415 93.4811721 125.196375 93.4811721 125.196375 98.0800237 122.83259 98.0800287 122.83259 86.370761 127.00298 86.370761C129.6876 86.370761 131.35914 87.5756563 131.35914 89.9514402 131.455988 91.3248686 130.646717 92.6000646 129.366785 93.0908609L131.78122 98.0800287zM125.196375 91.4787388L126.7835 91.4787388C128.184875 91.4787388 128.995335 91.173266 128.995335 89.9514352 128.995335 88.7296043 128.184875 88.3901951 126.7835 88.3901951L125.196375 88.3901951 125.196375 91.4787388zM137.38678 98.0800237L133.25014 98.0800287 133.25014 86.370761 137.38678 86.370761C140.020715 86.370761 141.861085 87.7283776 141.861085 91.461743L141.861085 92.9890466C141.861085 96.7054413 140.020715 98.0800287 137.38678 98.0800287L137.38678 98.0800237zM137.38678 96.0775853C138.957005 96.0775853 139.49728 95.0084758 139.49728 92.9890416L139.49728 91.461738C139.49728 89.442334 138.956985 88.3901951 137.38678 88.3901951L135.613925 88.3901951 135.613925 96.0775904 137.38678 96.0775853z"/>
  </g>
</svg>
