<svg xmlns="http://www.w3.org/2000/svg" xmlns:xlink="http://www.w3.org/1999/xlink"><defs><symbol viewBox="0 0 24 24" id="add">
  <path fill="#FF8D5F" d="M12,2 C6.48,2 2,6.48 2,12 C2,17.52 6.48,22 12,22 C17.52,22 22,17.52 22,12 C22,6.48 17.52,2 12,2 Z M16,13 L13,13 L13,16 C13,16.55 12.55,17 12,17 C11.45,17 11,16.55 11,16 L11,13 L8,13 C7.45,13 7,12.55 7,12 C7,11.45 7.45,11 8,11 L11,11 L11,8 C11,7.45 11.45,7 12,7 C12.55,7 13,7.45 13,8 L13,11 L16,11 C16.55,11 17,11.45 17,12 C17,12.55 16.55,13 16,13 Z" />
</symbol><symbol viewBox="0 0 24 24" id="add_sign">
  <path fill="#F7F7F7" d="M13,8 L8,8 L8,13 C8,13.55 7.55,14 7,14 C6.45,14 6,13.55 6,13 L6,8 L1,8 C0.45,8 0,7.55 0,7 C0,6.45 0.45,6 1,6 L6,6 L6,1 C6,0.45 6.45,0 7,0 C7.55,0 8,0.45 8,1 L8,6 L13,6 C13.55,6 14,6.45 14,7 C14,7.55 13.55,8 13,8 Z" transform="translate(5 5)" />
</symbol><symbol viewBox="0 0 24 24" id="adjust">
  <g fill="none" transform="translate(3 3)">
    <path fill="#000000" d="M0,15 C0,15.55 0.45,16 1,16 L6,16 L6,14 L1,14 C0.45,14 0,14.45 0,15 Z M0,3 C0,3.55 0.45,4 1,4 L10,4 L10,2 L1,2 C0.45,2 0,2.45 0,3 Z M18,9 C18,8.45 17.55,8 17,8 L8,8 L8,10 L17,10 C17.55,10 18,9.55 18,9 Z" />
    <path fill="#FF8D5F" fill-opacity=".5" d="M10,17 C10,17.55 9.55,18 9,18 C8.45,18 8,17.55 8,17 L8,13 C8,12.45 8.45,12 9,12 C9.55,12 10,12.45 10,13 L10,14 L17,14 C17.55,14 18,14.45 18,15 C18,15.55 17.55,16 17,16 L10,16 L10,17 Z M4,7 C4,6.45 4.45,6 5,6 C5.55,6 6,6.45 6,7 L6,11 C6,11.55 5.55,12 5,12 C4.45,12 4,11.55 4,11 L4,10 L1,10 C0.45,10 0,9.55 0,9 C0,8.45 0.45,8 1,8 L4,8 L4,7 Z M13,6 C12.45,6 12,5.55 12,5 L12,1 C12,0.45 12.45,0 13,0 C13.55,0 14,0.45 14,1 L14,2 L17,2 C17.55,2 18,2.45 18,3 C18,3.55 17.55,4 17,4 L14,4 L14,5 C14,5.55 13.55,6 13,6 Z" />
  </g>
</symbol><symbol viewBox="0 0 24 24" id="arrow-down">
  <path fill="#000000" d="M2.12,1.29 L6,5.17 L9.88,1.29 C10.27,0.9 10.9,0.9 11.29,1.29 C11.68,1.68 11.68,2.31 11.29,2.7 L6.7,7.29 C6.31,7.68 5.68,7.68 5.29,7.29 L0.7,2.7 C0.31,2.31 0.31,1.68 0.7,1.29 C1.09,0.91 1.73,0.9 2.12,1.29 Z" transform="translate(6 8)" />
</symbol><symbol viewBox="0 0 24 24" id="arrow-left">
  <path fill="#000000" d="M6.71,9.88 L2.83,6 L6.71,2.12 C7.1,1.73 7.1,1.1 6.71,0.71 C6.32,0.32 5.69,0.32 5.3,0.71 L0.71,5.3 C0.32,5.69 0.32,6.32 0.71,6.71 L5.3,11.3 C5.69,11.69 6.32,11.69 6.71,11.3 C7.09,10.91 7.1,10.27 6.71,9.88 Z" transform="translate(8 6)" />
</symbol><symbol viewBox="0 0 24 24" id="arrow-right">
  <path fill="#000000" d="M1.29,9.88 L5.17,6 L1.29,2.12 C0.9,1.73 0.9,1.1 1.29,0.71 C1.68,0.32 2.31,0.32 2.7,0.71 L7.29,5.3 C7.68,5.69 7.68,6.32 7.29,6.71 L2.7,11.3 C2.31,11.69 1.68,11.69 1.29,11.3 C0.91,10.91 0.9,10.27 1.29,9.88 Z" transform="translate(8 6)" />
</symbol><symbol viewBox="0 0 24 24" id="arrow-up">
  <path fill="#000000" d="M2.12,6.71 L6,2.83 L9.88,6.71 C10.27,7.1 10.9,7.1 11.29,6.71 C11.68,6.32 11.68,5.69 11.29,5.3 L6.7,0.71 C6.31,0.32 5.68,0.32 5.29,0.71 L0.7,5.3 C0.31,5.69 0.31,6.32 0.7,6.71 C1.09,7.09 1.73,7.1 2.12,6.71 Z" transform="translate(6 8)" />
</symbol><symbol viewBox="0 0 24 24" id="brand">
  <g fill="none" transform="translate(2 2)">
    <path fill="#FF8D5F" d="M4.81989159,8.70808819 L9.12846981,17.3252446 C9.14991985,17.3643321 9.19862604,17.3797765 9.2388494,17.3596648 C9.55997901,17.1767838 9.79446257,17.0833333 10,17.0833333 C10.2055256,17.0833333 10.4399911,17.1767725 10.7571891,17.3575489 C10.7856906,17.3738027 10.8197504,17.3713702 10.8452113,17.3541167 C11.6687303,15.7134895 13.1217726,12.8130285 15.2043381,8.65273375 C15.3087256,8.37643617 15.1891628,8.06042888 14.9192338,7.9254644 L10.7080882,5.81989159 C10.2623363,5.59701566 9.73766367,5.59701566 9.29191181,5.81989159 L5.08076619,7.9254644 C4.79261207,8.06954146 4.67581453,8.41993407 4.81989159,8.70808819 Z" />
    <path fill="#FFFFFF" d="M15.2919118 7.18010841C15.5800659 7.32418547 15.9304585 7.20738793 16.0745356 6.91923381L18.9565016 1.15530179C18.977084 1.11413691 18.9603987 1.06408083 18.9192338 1.04349839 18.8957732 1.03176808 18.8681588 1.03176808 18.8446982 1.04349839L11.0807662 4.9254644C11.0396013 4.94604684 11.022916 4.99610292 11.0434984 5.0372678 11.051562 5.05339508 11.0646389 5.06647196 11.0807662 5.0745356L15.2919118 7.18010841zM8.91923381 5.0745356C8.96039869 5.05395316 8.97708405 5.00389708 8.95650161 4.9627322 8.94843797 4.94660492 8.93536109 4.93352804 8.91923381 4.9254644L1.15530179 1.04349839C1.11413691 1.02291595 1.06408083 1.03960131 1.04349839 1.08076619 1.03176808 1.10422681 1.03176808 1.13184116 1.04349839 1.15530179L3.9254644 6.91923381C4.06954146 7.20738793 4.41993407 7.32418547 4.70808819 7.18010841L8.91923381 5.0745356z" />
    <path fill="#000000" d="M9.29191181,4.18010841 C9.92056274,4.45019531 10.2899475,4.34625244 10.7080882,4.18010841 L18.4720202,0.298142397 C18.7300871,0.169108964 19.0338449,0.169108964 19.2919118,0.298142397 C19.7447254,0.524549208 19.9282644,1.07516616 19.7018576,1.52797978 L10.8198916,19.2919118 C10.7311915,19.4693119 10.5873459,19.6131575 10.4099458,19.7018576 C9.95713217,19.9282644 9.40651522,19.7447254 9.18010841,19.2919118 L8.38646027,17.7046155 C8.38481943,17.7014262 8.3831948,17.6982232 8.38158651,17.6950067 L0.298142397,1.52797978 C0.169108964,1.26991292 0.169108964,0.966155059 0.298142397,0.708088193 C0.524549208,0.25527457 1.07516616,0.0717355857 1.52797978,0.298142397 L9.29191181,4.18010841 Z M4.81989159,8.70808819 L9.12846981,17.3252446 C9.14991985,17.3643321 9.19862604,17.3797765 9.2388494,17.3596648 C9.55997901,17.1767838 9.79446257,17.0833333 10,17.0833333 C10.2055256,17.0833333 10.4399911,17.1767725 10.7571891,17.3575489 C10.7856906,17.3738027 10.8197504,17.3713702 10.8452113,17.3541167 C11.6687303,15.7134895 13.1217726,12.8130285 15.2043381,8.65273375 C15.3087256,8.37643617 15.1891628,8.06042888 14.9192338,7.9254644 L10.7080882,5.81989159 C10.2623363,5.59701566 9.73766367,5.59701566 9.29191181,5.81989159 L5.08076619,7.9254644 C4.79261207,8.06954146 4.67581453,8.41993407 4.81989159,8.70808819 Z M8.5,12 C8.22385763,12 8,11.7761424 8,11.5 C8,11.2238576 8.22385763,11 8.5,11 C8.77614237,11 9,11.2238576 9,11.5 C9,11.7761424 8.77614237,12 8.5,12 Z M11.5,12 C11.2238576,12 11,11.7761424 11,11.5 C11,11.2238576 11.2238576,11 11.5,11 C11.7761424,11 12,11.2238576 12,11.5 C12,11.7761424 11.7761424,12 11.5,12 Z M15.2919118,7.18010841 C15.5800659,7.32418547 15.9304585,7.20738793 16.0745356,6.91923381 L18.9565016,1.15530179 C18.977084,1.11413691 18.9603987,1.06408083 18.9192338,1.04349839 C18.8957732,1.03176808 18.8681588,1.03176808 18.8446982,1.04349839 L11.0807662,4.9254644 C11.0396013,4.94604684 11.022916,4.99610292 11.0434984,5.0372678 C11.051562,5.05339508 11.0646389,5.06647196 11.0807662,5.0745356 L15.2919118,7.18010841 Z M8.91923381,5.0745356 C8.96039869,5.05395316 8.97708405,5.00389708 8.95650161,4.9627322 C8.94843797,4.94660492 8.93536109,4.93352804 8.91923381,4.9254644 L1.15530179,1.04349839 C1.11413691,1.02291595 1.06408083,1.03960131 1.04349839,1.08076619 C1.03176808,1.10422681 1.03176808,1.13184116 1.04349839,1.15530179 L3.9254644,6.91923381 C4.06954146,7.20738793 4.41993407,7.32418547 4.70808819,7.18010841 L8.91923381,5.0745356 Z" />
  </g>
</symbol><symbol viewBox="0 0 24 24" id="checkbox-check">
  <path fill="#FF8D5F" d="M19,3 L5,3 C3.9,3 3,3.9 3,5 L3,19 C3,20.1 3.9,21 5,21 L19,21 C20.1,21 21,20.1 21,19 L21,5 C21,3.9 20.1,3 19,3 Z M10.71,16.29 C10.32,16.68 9.69,16.68 9.3,16.29 L5.71,12.7 C5.32,12.31 5.32,11.68 5.71,11.29 C6.1,10.9 6.73,10.9 7.12,11.29 L10,14.17 L16.88,7.29 C17.27,6.9 17.9,6.9 18.29,7.29 C18.68,7.68 18.68,8.31 18.29,8.7 L10.71,16.29 Z" />
</symbol><symbol viewBox="0 0 24 24" id="checkbox-uncheck">
  <path fill="#000000" d="M18,19 L6,19 C5.45,19 5,18.55 5,18 L5,6 C5,5.45 5.45,5 6,5 L18,5 C18.55,5 19,5.45 19,6 L19,18 C19,18.55 18.55,19 18,19 Z M19,3 L5,3 C3.9,3 3,3.9 3,5 L3,19 C3,20.1 3.9,21 5,21 L19,21 C20.1,21 21,20.1 21,19 L21,5 C21,3.9 20.1,3 19,3 Z" />
</symbol><symbol viewBox="0 0 24 24" id="close">
  <path fill="#000000" d="M13.3,0.71 C12.91,0.32 12.28,0.32 11.89,0.71 L7,5.59 L2.11,0.7 C1.72,0.31 1.09,0.31 0.7,0.7 C0.31,1.09 0.31,1.72 0.7,2.11 L5.59,7 L0.7,11.89 C0.31,12.28 0.31,12.91 0.7,13.3 C1.09,13.69 1.72,13.69 2.11,13.3 L7,8.41 L11.89,13.3 C12.28,13.69 12.91,13.69 13.3,13.3 C13.69,12.91 13.69,12.28 13.3,11.89 L8.41,7 L13.3,2.11 C13.68,1.73 13.68,1.09 13.3,0.71 Z" transform="translate(5 5)" />
</symbol><symbol viewBox="0 0 24 24" id="code">
  <path fill="#000000" d="M8.7,15.9 L4.8,12 L8.7,8.1 C9.09,7.71 9.09,7.09 8.7,6.7 C8.31,6.31 7.69,6.31 7.3,6.7 L2.71,11.29 C2.32,11.68 2.32,12.31 2.71,12.7 L7.3,17.3 C7.69,17.69 8.31,17.69 8.7,17.3 C9.09,16.91 9.09,16.29 8.7,15.9 Z M15.3,15.9 L19.2,12 L15.3,8.1 C14.91,7.71 14.91,7.09 15.3,6.7 C15.69,6.31 16.31,6.31 16.7,6.7 L21.29,11.29 C21.68,11.68 21.68,12.31 21.29,12.7 L16.7,17.3 C16.31,17.69 15.69,17.69 15.3,17.3 C14.91,16.91 14.91,16.29 15.3,15.9 Z" />
</symbol><symbol viewBox="0 0 24 24" id="comp">
  <g fill="none" transform="translate(3 5)">
    <path fill="#000000" d="M9.30805446,12.38 L8.40805446,10 L2.76805446,10 L1.87805446,12.37 C1.73805446,12.75 1.37805446,13 0.968054463,13 C0.288054463,13 -0.181945537,12.31 0.0680544627,11.68 L4.31805446,0.87 C4.53805446,0.34 5.03805446,0 5.59805446,0 C6.15805446,0 6.65805446,0.34 6.86805446,0.87 L11.1180545,11.68 C11.3680545,12.31 10.8980545,13 10.2180545,13 C9.81805446,13 9.45805446,12.75 9.30805446,12.38 Z M3.52805446,8 L7.66805446,8 L5.59805446,2.48 L3.52805446,8 Z" />
    <path fill="#FF8D5F" fill-opacity=".5" d="M7.51486297,8 L7.59326897,7.80057203 L10.3180545,0.87 C10.5380545,0.34 11.0380545,0 11.5980545,0 C12.1580545,0 12.6580545,0.34 12.8680545,0.87 L17.1180545,11.68 C17.3680545,12.31 16.8980545,13 16.2180545,13 C15.8180545,13 15.4580545,12.75 15.3080545,12.38 L14.4080545,10 L8.76805446,10 L7.87805446,12.37 C7.73805446,12.75 7.37805446,13 6.96805446,13 C6.28805446,13 5.81805446,12.31 6.06805446,11.68 L7.51486297,8 Z M9.52805446,8 L13.6680545,8 L11.5980545,2.48 L9.52805446,8 Z" />
  </g>
</symbol><symbol viewBox="0 0 24 24" id="delete">
  <g fill="none" transform="translate(5 3)">
    <path fill="#000000" d="M1,16 L1,6 C1,4.9 1.9,4 3,4 L11,4 C12.1,4 13,4.9 13,6 L13,16 C13,17.1 12.1,18 11,18 L3,18 C1.9,18 1,17.1 1,16 Z M7,7 C6.44771525,7 6,7.44771525 6,8 L6,14 C6,14.5522847 6.44771525,15 7,15 C7.55228475,15 8,14.5522847 8,14 L8,8 C8,7.44771525 7.55228475,7 7,7 Z M10.5,7 C10.2238576,7 10,7.22385763 10,7.5 L10,14.5 C10,14.7761424 10.2238576,15 10.5,15 C10.7761424,15 11,14.7761424 11,14.5 L11,7.5 C11,7.22385763 10.7761424,7 10.5,7 Z M3.5,7 C3.22385763,7 3,7.22385763 3,7.5 L3,14.5 C3,14.7761424 3.22385763,15 3.5,15 C3.77614237,15 4,14.7761424 4,14.5 L4,7.5 C4,7.22385763 3.77614237,7 3.5,7 Z M13,1 C13.55,1 14,1.45 14,2 C14,2.55 13.55,3 13,3 L1,3 C0.45,3 0,2.55 0,2 C0,1.45 0.45,1 1,1 L3.5,1 L4.21,0.29 C4.39,0.11 4.65,0 4.91,0 L9.09,0 C9.35,0 9.61,0.11 9.79,0.29 L10.5,1 L13,1 Z" />
    <path fill="#FF8D5F" fill-opacity=".5" d="M7,7 C7.55228475,7 8,7.44771525 8,8 L8,14 C8,14.5522847 7.55228475,15 7,15 C6.44771525,15 6,14.5522847 6,14 L6,8 C6,7.44771525 6.44771525,7 7,7 Z M10.5,7 C10.7761424,7 11,7.22385763 11,7.5 L11,14.5 C11,14.7761424 10.7761424,15 10.5,15 C10.2238576,15 10,14.7761424 10,14.5 L10,7.5 C10,7.22385763 10.2238576,7 10.5,7 Z M3.5,7 C3.77614237,7 4,7.22385763 4,7.5 L4,14.5 C4,14.7761424 3.77614237,15 3.5,15 C3.22385763,15 3,14.7761424 3,14.5 L3,7.5 C3,7.22385763 3.22385763,7 3.5,7 Z" />
  </g>
</symbol><symbol viewBox="0 0 24 24" id="duplicate">
  <g fill="none" fill-rule="evenodd">
    <polygon points="0 0 24 0 24 24 0 24" />
    <path fill="#000000" fill-rule="nonzero" d="M8,5 L13.1715729,5 C13.7020059,5 14.2107137,5.21071368 14.5857864,5.58578644 L20.4142136,11.4142136 C20.7892863,11.7892863 21,12.2979941 21,12.8284271 L21,21 C21,22.1045695 20.1045695,23 19,23 L8,23 C6.8954305,23 6,22.1045695 6,21 L6,7 C6,5.8954305 6.8954305,5 8,5 Z M14,7.82842712 L14,12 L18.1715729,12 L14,7.82842712 Z M12,7 L8,7 L8,21 L19,21 L19,14 L14,14 C12.8954305,14 12,13.1045695 12,12 L12,7 Z M15,1 C15.55,1 16,1.45 16,2 C16,2.55 15.55,3 15,3 L5,3 C4.45,3 4,3.45 4,4 L4,16 C4,16.55 3.55,17 3,17 C2.45,17 2,16.55 2,16 L2,3 C2,1.9 2.9,1 4,1 L15,1 Z" />
    <path fill="#FF8D5F" fill-opacity=".5" fill-rule="nonzero" d="M12,7 L8,7 L8,21 L19,21 L19,14 L14,14 C12.8954305,14 12,13.1045695 12,12 L12,7 Z" />
  </g>
</symbol><symbol viewBox="0 0 24 24" id="edit">
  <g fill="none" transform="translate(3 2)">
    <path fill="#000000" d="M0,15.46 L0,18.5 C0,18.78 0.22,19 0.5,19 L3.54,19 C3.67,19 3.8,18.95 3.89,18.85 L14.81,7.94 L11.06,4.19 L0.15,15.1 C0.05,15.2 0,15.32 0,15.46 Z" />
    <path fill="#FF8D5F" fill-opacity=".5" d="M17.71,5.04 C18.1,4.65 18.1,4.02 17.71,3.63 L15.37,1.29 C14.98,0.9 14.35,0.9 13.96,1.29 L12.13,3.12 L15.88,6.87 L17.71,5.04 Z" />
  </g>
</symbol><symbol viewBox="0 0 24 24" id="export">
  <g fill="none" fill-rule="evenodd">
    <path fill="#FF8D5F" fill-opacity=".5" fill-rule="nonzero" d="M13.4142136,17.5857864 L18.4142136,12.5857864 C18.7892863,12.2107137 19.2979941,12 19.8284271,12 L20,12 L20,19 L4,19 L4,12 L4.17157288,12 C4.70200585,12 5.21071368,12.2107137 5.58578644,12.5857864 L10.5857864,17.5857864 C11.366835,18.366835 12.633165,18.366835 13.4142136,17.5857864 Z" />
    <path fill="#000000" fill-rule="nonzero" d="M19,13 L19,18 C19,18.55 18.55,19 18,19 L6,19 C5.45,19 5,18.55 5,18 L5,13 C5,12.45 4.55,12 4,12 C3.45,12 3,12.45 3,13 L3,19 C3,20.1 3.9,21 5,21 L19,21 C20.1,21 21,20.1 21,19 L21,13 C21,12.45 20.55,12 20,12 C19.45,12 19,12.45 19,13 Z M13,12.67 L14.88,10.79 C15.27,10.4 15.9,10.4 16.29,10.79 C16.68,11.18 16.68,11.81 16.29,12.2 L12.7,15.79 C12.31,16.18 11.68,16.18 11.29,15.79 L7.7,12.2 C7.31,11.81 7.31,11.18 7.7,10.79 C8.09,10.4 8.72,10.4 9.11,10.79 L11,12.67 L11,4 C11,3.45 11.45,3 12,3 C12.55,3 13,3.45 13,4 L13,12.67 Z" />
  </g>
</symbol><symbol viewBox="0 0 24 24" id="export-white">
  <g fill="none" fill-rule="evenodd">
    <path fill="#FFFFFF" fill-opacity=".3" fill-rule="nonzero" d="M13.4142136,17.5857864 L18.4142136,12.5857864 C18.7892863,12.2107137 19.2979941,12 19.8284271,12 L20,12 L20,19 L4,19 L4,12 L4.17157288,12 C4.70200585,12 5.21071368,12.2107137 5.58578644,12.5857864 L10.5857864,17.5857864 C11.366835,18.366835 12.633165,18.366835 13.4142136,17.5857864 Z" />
    <path fill="#FFFFFF" fill-rule="nonzero" d="M19,13 L19,18 C19,18.55 18.55,19 18,19 L6,19 C5.45,19 5,18.55 5,18 L5,13 C5,12.45 4.55,12 4,12 C3.45,12 3,12.45 3,13 L3,19 C3,20.1 3.9,21 5,21 L19,21 C20.1,21 21,20.1 21,19 L21,13 C21,12.45 20.55,12 20,12 C19.45,12 19,12.45 19,13 Z M13,12.67 L14.88,10.79 C15.27,10.4 15.9,10.4 16.29,10.79 C16.68,11.18 16.68,11.81 16.29,12.2 L12.7,15.79 C12.31,16.18 11.68,16.18 11.29,15.79 L7.7,12.2 C7.31,11.81 7.31,11.18 7.7,10.79 C8.09,10.4 8.72,10.4 9.11,10.79 L11,12.67 L11,4 C11,3.45 11.45,3 12,3 C12.55,3 13,3.45 13,4 L13,12.67 Z" />
  </g>
</symbol><symbol viewBox="0 0 24 24" id="export-white.1">
  <g fill="none" fill-rule="evenodd">
    <path fill="#FFFFFF" fill-opacity=".3" fill-rule="nonzero" d="M13.4142136,17.5857864 L18.4142136,12.5857864 C18.7892863,12.2107137 19.2979941,12 19.8284271,12 L20,12 L20,19 L4,19 L4,12 L4.17157288,12 C4.70200585,12 5.21071368,12.2107137 5.58578644,12.5857864 L10.5857864,17.5857864 C11.366835,18.366835 12.633165,18.366835 13.4142136,17.5857864 Z" />
    <path fill="#FFFFFF" fill-rule="nonzero" d="M19,13 L19,18 C19,18.55 18.55,19 18,19 L6,19 C5.45,19 5,18.55 5,18 L5,13 C5,12.45 4.55,12 4,12 C3.45,12 3,12.45 3,13 L3,19 C3,20.1 3.9,21 5,21 L19,21 C20.1,21 21,20.1 21,19 L21,13 C21,12.45 20.55,12 20,12 C19.45,12 19,12.45 19,13 Z M13,12.67 L14.88,10.79 C15.27,10.4 15.9,10.4 16.29,10.79 C16.68,11.18 16.68,11.81 16.29,12.2 L12.7,15.79 C12.31,16.18 11.68,16.18 11.29,15.79 L7.7,12.2 C7.31,11.81 7.31,11.18 7.7,10.79 C8.09,10.4 8.72,10.4 9.11,10.79 L11,12.67 L11,4 C11,3.45 11.45,3 12,3 C12.55,3 13,3.45 13,4 L13,12.67 Z" />
  </g>
</symbol><symbol viewBox="0 0 24 24" id="filter">
  <path fill="#000000" d="M8,12 L10,12 C10.55,12 11,11.55 11,11 C11,10.45 10.55,10 10,10 L8,10 C7.45,10 7,10.45 7,11 C7,11.55 7.45,12 8,12 Z M0,1 C0,1.55 0.45,2 1,2 L17,2 C17.55,2 18,1.55 18,1 C18,0.45 17.55,0 17,0 L1,0 C0.45,0 0,0.45 0,1 Z M4,7 L14,7 C14.55,7 15,6.55 15,6 C15,5.45 14.55,5 14,5 L4,5 C3.45,5 3,5.45 3,6 C3,6.55 3.45,7 4,7 Z" transform="translate(3 7)" />
</symbol><symbol viewBox="0 0 24 24" id="font">
  <g fill="none" transform="translate(2 2)">
    <polygon fill="#FF8D5F" fill-opacity=".5" points="2 2 2 18 18 18 18 2" />
    <path fill="#000000" d="M18,0 L2,0 C0.9,0 0,0.9 0,2 L0,18 C0,19.1 0.9,20 2,20 L18,20 C19.1,20 20,19.1 20,18 L20,2 C20,0.9 19.1,0 18,0 Z M2,2 L18,2 L18,18 L2,18 L2,2 Z M13.71,15.88 C13.86,16.25 14.22,16.5 14.62,16.5 C15.3,16.5 15.77,15.81 15.52,15.18 L11.27,4.37 C11.06,3.84 10.56,3.5 10,3.5 C9.44,3.5 8.94,3.84 8.72,4.37 L4.47,15.18 C4.22,15.81 4.69,16.5 5.37,16.5 C5.78,16.5 6.14,16.25 6.28,15.87 L7.17,13.5 L12.81,13.5 L13.71,15.88 Z M7.93,11.5 L10,5.98 L12.07,11.5 L7.93,11.5 Z" />
  </g>
</symbol><symbol viewBox="0 0 24 24" id="format">
  <g fill="none" transform="translate(1 1)">
    <rect width="18" height="18" x="2" y="2" fill="#FF8D5F" fill-opacity=".5" />
    <path fill="#000000" d="M22,5 L22,1 C22,0.45 21.55,0 21,0 L17,0 C16.45,0 16,0.45 16,1 L16,2 L6,2 L6,1 C6,0.45 5.55,0 5,0 L1,0 C0.45,0 0,0.45 0,1 L0,5 C0,5.55 0.45,6 1,6 L2,6 L2,16 L1,16 C0.45,16 0,16.45 0,17 L0,21 C0,21.55 0.45,22 1,22 L5,22 C5.55,22 6,21.55 6,21 L6,20 L16,20 L16,21 C16,21.55 16.45,22 17,22 L21,22 C21.55,22 22,21.55 22,21 L22,17 C22,16.45 21.55,16 21,16 L20,16 L20,6 L21,6 C21.55,6 22,5.55 22,5 Z M2,2 L4,2 L4,4 L2,4 L2,2 Z M4,20 L2,20 L2,18 L4,18 L4,20 Z M16,18 L6,18 L6,17 C6,16.45 5.55,16 5,16 L4,16 L4,6 L5,6 C5.55,6 6,5.55 6,5 L6,4 L16,4 L16,5 C16,5.55 16.45,6 17,6 L18,6 L18,16 L17,16 C16.45,16 16,16.45 16,17 L16,18 Z M20,20 L18,20 L18,18 L20,18 L20,20 Z M18,4 L18,2 L20,2 L20,4 L18,4 Z M11.94,6.65 C11.79,6.26 11.41,6 10.99,6 C10.57,6 10.19,6.26 10.05,6.65 L7.28,13.98 C7.09,14.47 7.45,15 7.98,15 C8.3,15 8.58,14.8 8.69,14.5 L9.24,13 L12.73,13 L13.29,14.51 C13.4,14.8 13.68,15 14,15 L14.01,15 C14.54,15 14.9,14.47 14.72,13.98 L11.94,6.65 Z M9.69,11.74 L11,7.91 L12.3,11.74 L9.69,11.74 Z" />
  </g>
</symbol><symbol viewBox="0 0 24 24" id="link-out">
  <g fill="none" fill-rule="evenodd">
    <polygon points="0 0 24 0 24 24 0 24" />
    <path fill="#000000" fill-rule="nonzero" d="M18,19 L6,19 C5.45,19 5,18.55 5,18 L5,6 C5,5.45 5.45,5 6,5 L11,5 C11.55,5 12,4.55 12,4 C12,3.45 11.55,3 11,3 L5,3 C3.89,3 3,3.9 3,5 L3,19 C3,20.1 3.9,21 5,21 L19,21 C20.1,21 21,20.1 21,19 L21,13 C21,12.45 20.55,12 20,12 C19.45,12 19,12.45 19,13 L19,18 C19,18.55 18.55,19 18,19 Z M14,4 C14,4.55 14.45,5 15,5 L17.59,5 L8.46,14.13 C8.07,14.52 8.07,15.15 8.46,15.54 C8.85,15.93 9.48,15.93 9.87,15.54 L19,6.41 L19,9 C19,9.55 19.45,10 20,10 C20.55,10 21,9.55 21,9 L21,4 C21,3.45 20.55,3 20,3 L15,3 C14.45,3 14,3.45 14,4 Z" />
  </g>
</symbol><symbol viewBox="0 0 24 24" id="link-out-orange">
  <g fill="none" fill-rule="evenodd">
    <polygon points="0 0 24 0 24 24 0 24" />
    <path fill="#FF8D5F" fill-rule="nonzero" d="M18,19 L6,19 C5.45,19 5,18.55 5,18 L5,6 C5,5.45 5.45,5 6,5 L11,5 C11.55,5 12,4.55 12,4 C12,3.45 11.55,3 11,3 L5,3 C3.89,3 3,3.9 3,5 L3,19 C3,20.1 3.9,21 5,21 L19,21 C20.1,21 21,20.1 21,19 L21,13 C21,12.45 20.55,12 20,12 C19.45,12 19,12.45 19,13 L19,18 C19,18.55 18.55,19 18,19 Z M14,4 C14,4.55 14.45,5 15,5 L17.59,5 L8.46,14.13 C8.07,14.52 8.07,15.15 8.46,15.54 C8.85,15.93 9.48,15.93 9.87,15.54 L19,6.41 L19,9 C19,9.55 19.45,10 20,10 C20.55,10 21,9.55 21,9 L21,4 C21,3.45 20.55,3 20,3 L15,3 C14.45,3 14,3.45 14,4 Z" />
  </g>
</symbol><symbol viewBox="0 0 24 24" id="link-out-orange-red">
  <g fill="none" fill-rule="evenodd">
    <polygon points="0 0 24 0 24 24 0 24" />
    <path fill="#FF692B" fill-rule="nonzero" d="M18,19 L6,19 C5.45,19 5,18.55 5,18 L5,6 C5,5.45 5.45,5 6,5 L11,5 C11.55,5 12,4.55 12,4 C12,3.45 11.55,3 11,3 L5,3 C3.89,3 3,3.9 3,5 L3,19 C3,20.1 3.9,21 5,21 L19,21 C20.1,21 21,20.1 21,19 L21,13 C21,12.45 20.55,12 20,12 C19.45,12 19,12.45 19,13 L19,18 C19,18.55 18.55,19 18,19 Z M14,4 C14,4.55 14.45,5 15,5 L17.59,5 L8.46,14.13 C8.07,14.52 8.07,15.15 8.46,15.54 C8.85,15.93 9.48,15.93 9.87,15.54 L19,6.41 L19,9 C19,9.55 19.45,10 20,10 C20.55,10 21,9.55 21,9 L21,4 C21,3.45 20.55,3 20,3 L15,3 C14.45,3 14,3.45 14,4 Z" />
  </g>
</symbol><symbol viewBox="0 0 24 24" id="login_user">
  <g fill="none" transform="translate(2 2)">
    <path fill="#FF8D5F" fill-opacity=".5" d="M10,2 C5.59,2 2,5.59 2,10 C2,11.82 2.62,13.49 3.64,14.83 C5.07,13.09 8.54,12.5 10,12.5 C11.46,12.5 14.93,13.09 16.36,14.83 C17.38,13.49 18,11.82 18,10 C18,5.59 14.41,2 10,2 Z M10,11 C8.06,11 6.5,9.44 6.5,7.5 C6.5,5.56 8.06,4 10,4 C11.94,4 13.5,5.56 13.5,7.5 C13.5,9.44 11.94,11 10,11 Z" />
    <path fill="#000000" d="M10,0 C4.48,0 0,4.48 0,10 C0,15.52 4.48,20 10,20 C15.52,20 20,15.52 20,10 C20,4.48 15.52,0 10,0 Z M5.07,16.28 C5.5,15.38 8.12,14.5 10,14.5 C11.88,14.5 14.51,15.38 14.93,16.28 C13.57,17.36 11.86,18 10,18 C8.14,18 6.43,17.36 5.07,16.28 Z M16.36,14.83 C14.93,13.09 11.46,12.5 10,12.5 C8.54,12.5 5.07,13.09 3.64,14.83 C2.62,13.49 2,11.82 2,10 C2,5.59 5.59,2 10,2 C14.41,2 18,5.59 18,10 C18,11.82 17.38,13.49 16.36,14.83 Z M10,4 C8.06,4 6.5,5.56 6.5,7.5 C6.5,9.44 8.06,11 10,11 C11.94,11 13.5,9.44 13.5,7.5 C13.5,5.56 11.94,4 10,4 Z M10,9 C9.17,9 8.5,8.33 8.5,7.5 C8.5,6.67 9.17,6 10,6 C10.83,6 11.5,6.67 11.5,7.5 C11.5,8.33 10.83,9 10,9 Z" />
  </g>
</symbol><symbol viewBox="0 0 24 24" id="logout_user">
  <g fill="none" transform="translate(2 2)">
    <path fill="#FF8D5F" fill-opacity=".5" d="M16.9467849,13.9453051 L12.7167423,9.71249951 C13.2068774,9.11047473 13.5,8.34093819 13.5,7.5 C13.5,5.56 11.94,4 10,4 C9.15988788,4 8.3910372,4.292547 7.78927512,4.78181384 L6.05257171,3.04397607 C7.218105,2.37975926 8.56568167,2 10,2 C14.41,2 18,5.59 18,10 C18,11.4384176 17.6127255,12.7831398 16.9467849,13.9453051 Z M13.1973098,13.0143018 C11.9665536,12.6479853 10.7312,12.5 10,12.5 C8.54,12.5 5.07,13.09 3.64,14.83 C2.62,13.49 2,11.82 2,10 C2,7.74712439 2.93689667,5.70824746 4.44139314,4.25266609 L6.65372446,6.46644244 C6.55375762,6.79283455 6.5,7.13986987 6.5,7.5 C6.5,9.44 8.06,11 10,11 C10.359325,11 10.7056136,10.9464825 11.031368,10.8469454 L13.1973098,13.0143018 Z" />
    <path fill="#000000" d="M18.4102926,15.4097687 L16.9467849,13.9453051 C17.6127255,12.7831398 18,11.4384176 18,10 C18,5.59 14.41,2 10,2 C8.56568167,2 7.218105,2.37975926 6.05257171,3.04397607 L4.59571862,1.58617141 C6.15441056,0.582481891 8.00959578,0 10,0 C15.52,0 20,4.48 20,10 C20,11.9927404 19.4161499,13.8499443 18.4102926,15.4097687 Z M2.47477855,2.28433304 C2.48059341,2.29044432 2.48650056,2.29650056 2.4925,2.3025 L17.8025,17.6225 C17.8426992,17.6626992 17.8854482,17.6987548 17.9302215,17.730667 C18.3024077,18.121826 18.2965006,18.7384994 17.9125,19.1225 C17.5225,19.5125 16.8925,19.5125 16.5025,19.1225 L15.6387266,18.2581624 C14.033096,19.3570438 12.0911769,20 10,20 C4.48,20 0,15.52 0,10 C0,7.90648438 0.644395162,5.96256049 1.7455263,4.35588752 L1.1925,3.8025 C0.8025,3.4125 0.8025,2.7825 1.1925,2.3925 C1.54230083,2.04269917 2.0851756,2.00664352 2.47477855,2.28433304 Z M7.78927512,4.78181384 C8.3910372,4.292547 9.15988788,4 10,4 C11.94,4 13.5,5.56 13.5,7.5 C13.5,8.34093819 13.2068774,9.11047473 12.7167423,9.71249951 L11.2833857,8.27820668 C11.420899,8.05148661 11.5,7.7851882 11.5,7.5 C11.5,6.67 10.83,6 10,6 C9.71516313,6 9.44916953,6.07890618 9.2226314,6.21610634 L7.78927512,4.78181384 Z M12.1851646,14.8023446 C11.4516914,14.6141794 10.6771897,14.5 10,14.5 C8.12,14.5 5.5,15.38 5.07,16.28 C6.43,17.36 8.14,18 10,18 C11.5350434,18 12.9679208,17.5640914 14.1862096,16.8046967 L12.1851646,14.8023446 Z M9.88546269,12.5011407 L3.19204239,5.80334843 C2.43649305,7.02424074 2,8.46227019 2,10 C2,11.82 2.62,13.49 3.64,14.83 C5.03384266,13.1339956 8.36582734,12.5305713 9.88546269,12.5011407 Z" />
  </g>
</symbol><symbol viewBox="0 0 24 24" id="mail">
  <g fill="none" fill-rule="evenodd">
    <rect width="18" height="14" x="3" y="5" fill="#FF8D5F" fill-opacity=".5" fill-rule="nonzero" />
    <path fill="#000000" fill-rule="nonzero" d="M20,4 C21.1,4 22,4.9 22,6 L22,18 C22,19.1 21.1,20 20,20 L4,20 C2.9,20 2,19.1 2,18 L2.01,6 C2.01,4.9 2.9,4 4,4 L20,4 Z M19,18 C19.55,18 20,17.55 20,17 L20,8 L13.06,12.34 C12.41,12.75 11.59,12.75 10.94,12.34 L4,8 L4,17 C4,17.55 4.45,18 5,18 L19,18 Z M12,11 L20,6 L4,6 L12,11 Z" />
  </g>
</symbol><symbol viewBox="0 0 24 24" id="more">
  <path fill="#000000" d="M2,4 C3.1,4 4,3.1 4,2 C4,0.9 3.1,0 2,0 C0.9,0 0,0.9 0,2 C0,3.1 0.9,4 2,4 Z M2,6 C0.9,6 0,6.9 0,8 C0,9.1 0.9,10 2,10 C3.1,10 4,9.1 4,8 C4,6.9 3.1,6 2,6 Z M2,12 C0.9,12 0,12.9 0,14 C0,15.1 0.9,16 2,16 C3.1,16 4,15.1 4,14 C4,12.9 3.1,12 2,12 Z" transform="translate(10 4)" />
</symbol><symbol viewBox="0 0 24 24" id="number - up down">
  <path fill="#000000" d="M5,2.83 L7.46,5.29 C7.85,5.68 8.48,5.68 8.87,5.29 C9.26,4.9 9.26,4.27 8.87,3.88 L5.7,0.7 C5.31,0.31 4.68,0.31 4.29,0.7 L1.12,3.88 C0.73,4.27 0.73,4.9 1.12,5.29 C1.51,5.68 2.14,5.68 2.53,5.29 L5,2.83 Z M5,15.17 L2.54,12.71 C2.15,12.32 1.52,12.32 1.13,12.71 C0.74,13.1 0.74,13.73 1.13,14.12 L4.3,17.3 C4.69,17.69 5.32,17.69 5.71,17.3 L8.88,14.13 C9.27,13.74 9.27,13.11 8.88,12.72 C8.49,12.33 7.86,12.33 7.47,12.72 L5,15.17 Z" transform="translate(7 3)" />
</symbol><symbol viewBox="0 0 24 24" id="palette">
  <g fill="none" transform="translate(2 2)">
    <path fill="#FF8D5F" fill-opacity=".5" d="M10,2 C5.59,2 2,5.59 2,10 C2,14.41 5.59,18 10,18 C10.28,18 10.5,17.78 10.5,17.5 C10.5,17.34 10.42,17.22 10.36,17.15 C9.95,16.69 9.73,16.1 9.73,15.5 C9.73,14.12 10.85,13 12.23,13 L14,13 C16.21,13 18,11.21 18,9 C18,5.14 14.41,2 10,2 Z M4.5,11 C3.67,11 3,10.33 3,9.5 C3,8.67 3.67,8 4.5,8 C5.33,8 6,8.67 6,9.5 C6,10.33 5.33,11 4.5,11 Z M7.5,7 C6.67,7 6,6.33 6,5.5 C6,4.67 6.67,4 7.5,4 C8.33,4 9,4.67 9,5.5 C9,6.33 8.33,7 7.5,7 Z M12.5,7 C11.67,7 11,6.33 11,5.5 C11,4.67 11.67,4 12.5,4 C13.33,4 14,4.67 14,5.5 C14,6.33 13.33,7 12.5,7 Z M17,9.5 C17,10.33 16.33,11 15.5,11 C14.67,11 14,10.33 14,9.5 C14,8.67 14.67,8 15.5,8 C16.33,8 17,8.67 17,9.5 Z" />
    <path fill="#000000" d="M10,0 C15.51,0 20,4.04 20,9 C20,12.31 17.31,15 14,15 L12.23,15 C11.95,15 11.73,15.22 11.73,15.5 C11.73,15.62 11.78,15.74 11.86,15.83 C12.27,16.29 12.5,16.89 12.5,17.5 C12.5,18.88 11.38,20 10,20 C4.49,20 0,15.51 0,10 C0,4.49 4.49,0 10,0 Z M14,13 C16.21,13 18,11.21 18,9 C18,5.14 14.41,2 10,2 C5.59,2 2,5.59 2,10 C2,14.41 5.59,18 10,18 C10.28,18 10.5,17.78 10.5,17.5 C10.5,17.34 10.42,17.22 10.36,17.15 C9.95,16.69 9.73,16.11 9.73,15.5 C9.73,14.12 10.85,13 12.23,13 L14,13 Z M4.5,11 C3.67157288,11 3,10.3284271 3,9.5 C3,8.67157288 3.67157288,8 4.5,8 C5.32842712,8 6,8.67157288 6,9.5 C6,10.3284271 5.32842712,11 4.5,11 Z M7.5,7 C6.67157288,7 6,6.32842712 6,5.5 C6,4.67157288 6.67157288,4 7.5,4 C8.32842712,4 9,4.67157288 9,5.5 C9,6.32842712 8.32842712,7 7.5,7 Z M12.5,7 C11.6715729,7 11,6.32842712 11,5.5 C11,4.67157288 11.6715729,4 12.5,4 C13.3284271,4 14,4.67157288 14,5.5 C14,6.32842712 13.3284271,7 12.5,7 Z M15.5,11 C14.6715729,11 14,10.3284271 14,9.5 C14,8.67157288 14.6715729,8 15.5,8 C16.3284271,8 17,8.67157288 17,9.5 C17,10.3284271 16.3284271,11 15.5,11 Z" />
  </g>
</symbol><symbol viewBox="0 0 24 24" id="parameters">
  <g fill="none" fill-rule="evenodd">
    <polygon points="0 0 24 0 24 24 0 24" />
    <path fill="#FF8D5F" fill-opacity=".5" fill-rule="nonzero" d="M19.28,8.6 L18.18,9.44 L17.29,10.14 L17.43,11.27 C17.46,11.57 17.48,11.79 17.48,12 C17.48,12.21 17.47,12.42 17.43,12.73 L17.29,13.86 L18.18,14.56 L19.26,15.4 L18.56,16.61 L17.29,16.1 L16.25,15.68 L15.35,16.36 C14.92,16.68 14.51,16.92 14.1,17.09 L13.04,17.52 L12.88,18.65 L12.69,20 L11.3,20 L11.11,18.64 L10.95,17.51 L9.89,17.08 C9.46,16.91 9.05,16.67 8.66,16.37 L7.75,15.67 L6.69,16.1 L5.42,16.61 L4.72,15.4 L5.8,14.56 L6.69,13.86 L6.55,12.73 C6.52,12.43 6.5,12.2 6.5,12 C6.5,11.8 6.52,11.57 6.55,11.27 L6.69,10.14 L5.8,9.44 L4.72,8.6 L5.42,7.39 L6.69,7.91 L7.74,8.33 L8.64,7.65 C9.07,7.33 9.48,7.09 9.89,6.92 L10.95,6.48 L11.11,5.35 L11.3,4 L12.7,4 L12.89,5.36 L13.05,6.49 L14.11,6.92 C14.54,7.09 14.95,7.33 15.34,7.63 L16.25,8.33 L17.31,7.9 L18.58,7.39 L19.28,8.6 Z M12,16 C14.21,16 16,14.21 16,12 C16,9.79 14.21,8 12,8 C9.79,8 8,9.79 8,12 C8,14.21 9.79,16 12,16 Z" />
    <path fill="#000000" fill-rule="nonzero" d="M19.43,12.98 L21.54,14.63 C21.73,14.78 21.78,15.05 21.66,15.27 L19.66,18.73 C19.57,18.89 19.4,18.98 19.23,18.98 C19.17,18.98 19.11,18.97 19.05,18.95 L16.56,17.95 C16.04,18.34 15.48,18.68 14.87,18.93 L14.49,21.58 C14.46,21.82 14.25,22 14,22 L10,22 C9.75,22 9.54,21.82 9.51,21.58 L9.13,18.93 C8.52,18.68 7.96,18.35 7.44,17.95 L4.95,18.95 C4.9,18.97 4.84,18.98 4.78,18.98 C4.6,18.98 4.43,18.89 4.34,18.73 L2.34,15.27 C2.22,15.05 2.27,14.78 2.46,14.63 L4.57,12.98 C4.53,12.66 4.5,12.33 4.5,12 C4.5,11.67 4.53,11.34 4.57,11.02 L2.46,9.37 C2.27,9.22 2.21,8.95 2.34,8.73 L4.34,5.27 C4.43,5.11 4.6,5.02 4.77,5.02 C4.83,5.02 4.89,5.03 4.95,5.05 L7.44,6.05 C7.96,5.66 8.52,5.32 9.13,5.07 L9.51,2.42 C9.54,2.18 9.75,2 10,2 L14,2 C14.25,2 14.46,2.18 14.49,2.42 L14.87,5.07 C15.48,5.32 16.04,5.65 16.56,6.05 L19.05,5.05 C19.1,5.03 19.16,5.02 19.22,5.02 C19.4,5.02 19.57,5.11 19.66,5.27 L21.66,8.73 C21.78,8.95 21.73,9.22 21.54,9.37 L19.43,11.02 C19.47,11.34 19.5,11.66 19.5,12 C19.5,12.34 19.47,12.66 19.43,12.98 Z M17.45,11.27 L17.31,10.14 L18.2,9.44 L19.27,8.59 L18.57,7.38 L17.3,7.89 L16.24,8.32 L15.33,7.62 C14.93,7.32 14.53,7.09 14.1,6.91 L13.04,6.48 L12.88,5.35 L12.69,4 L11.3,4 L11.1,5.35 L10.94,6.48 L9.88,6.91 C9.47,7.08 9.06,7.32 8.63,7.64 L7.73,8.32 L6.69,7.9 L5.42,7.39 L4.72,8.6 L5.8,9.44 L6.69,10.14 L6.55,11.27 C6.52,11.57 6.5,11.8 6.5,12 C6.5,12.2 6.52,12.43 6.55,12.74 L6.69,13.87 L5.8,14.57 L4.72,15.41 L5.42,16.62 L6.69,16.11 L7.75,15.68 L8.66,16.38 C9.06,16.68 9.46,16.91 9.89,17.09 L10.95,17.52 L11.11,18.65 L11.3,20 L12.7,20 L12.9,18.65 L13.06,17.52 L14.12,17.09 C14.53,16.92 14.94,16.68 15.37,16.36 L16.27,15.68 L17.31,16.1 L18.58,16.61 L19.28,15.4 L18.2,14.56 L17.31,13.86 L17.45,12.73 C17.48,12.43 17.5,12.21 17.5,12 C17.5,11.79 17.49,11.58 17.45,11.27 Z M12,8 C14.21,8 16,9.79 16,12 C16,14.21 14.21,16 12,16 C9.79,16 8,14.21 8,12 C8,9.79 9.79,8 12,8 Z M12,14 C13.1,14 14,13.1 14,12 C14,10.9 13.1,10 12,10 C10.9,10 10,10.9 10,12 C10,13.1 10.9,14 12,14 Z" />
  </g>
</symbol><symbol viewBox="0 0 24 24" id="regenerate">
  <path fill="#000000" d="M13.79,7.71 C14.3,7.2 15.16,7.38 15.43,8.05 C15.8,8.96 16,9.96 16,11 C16,15.42 12.42,19 8,19 L8,20.8 C8,21.24 7.46,21.46 7.15,21.15 L4.36,18.36 C4.16,18.16 4.16,17.85 4.36,17.65 L7.15,14.86 C7.46,14.54 8,14.76 8,15.21 L8,17 C11.31,17 14,14.31 14,11 C14,10.21 13.84,9.45 13.56,8.75 C13.41,8.4 13.52,7.98 13.79,7.71 Z M8,5 C4.69,5 2,7.69 2,11 C2,11.79 2.15,12.56 2.44,13.25 C2.59,13.61 2.48,14.02 2.21,14.29 C1.7,14.8 0.84,14.62 0.57,13.95 C0.2,13.04 8.8817842e-16,12.04 8.8817842e-16,11 C8.8817842e-16,6.58 3.58,3 8,3 L8,1.21 C8,0.76 8.54,0.54 8.85,0.85 L11.64,3.64 C11.84,3.84 11.84,4.15 11.64,4.35 L8.85,7.14 C8.54,7.46 8,7.24 8,6.79 L8,5 Z" transform="translate(4 1)" />
</symbol><symbol viewBox="0 0 24 24" id="remove">
  <path fill="#FF8D5F" d="M5,10 C5,10.55 5.45,11 6,11 L14,11 C14.55,11 15,10.55 15,10 C15,9.45 14.55,9 14,9 L6,9 C5.45,9 5,9.45 5,10 Z M10,0 C4.48,0 0,4.48 0,10 C0,15.52 4.48,20 10,20 C15.52,20 20,15.52 20,10 C20,4.48 15.52,0 10,0 Z M10,18 C5.59,18 2,14.41 2,10 C2,5.59 5.59,2 10,2 C14.41,2 18,5.59 18,10 C18,14.41 14.41,18 10,18 Z" transform="translate(2 2)" />
</symbol><symbol viewBox="0 0 24 24" id="search">
  <path fill="#000000" d="M13.5,12 L12.71,12 L12.43,11.73 C13.63,10.33 14.25,8.42 13.91,6.39 C13.44,3.61 11.12,1.39 8.32,1.05 C4.09,0.53 0.53,4.09 1.05,8.32 C1.39,11.12 3.61,13.44 6.39,13.91 C8.42,14.25 10.33,13.63 11.73,12.43 L12,12.71 L12,13.5 L16.25,17.75 C16.66,18.16 17.33,18.16 17.74,17.75 C18.15,17.34 18.15,16.67 17.74,16.26 L13.5,12 Z M7.5,12 C5.01,12 3,9.99 3,7.5 C3,5.01 5.01,3 7.5,3 C9.99,3 12,5.01 12,7.5 C12,9.99 9.99,12 7.5,12 Z" transform="translate(2 2)" />
</symbol><symbol viewBox="0 0 24 24" id="share">
  <g fill="none" fill-rule="evenodd">
    <path fill="#000000" fill-rule="nonzero" d="M18,16.08 C17.24,16.08 16.56,16.38 16.04,16.85 L8.91,12.7 C8.96,12.47 9,12.24 9,12 C9,11.76 8.96,11.53 8.91,11.3 L15.96,7.19 C16.5,7.69 17.21,8 18,8 C19.66,8 21,6.66 21,5 C21,3.34 19.66,2 18,2 C16.34,2 15,3.34 15,5 C15,5.24 15.04,5.47 15.09,5.7 L8.04,9.81 C7.5,9.31 6.79,9 6,9 C4.34,9 3,10.34 3,12 C3,13.66 4.34,15 6,15 C6.79,15 7.5,14.69 8.04,14.19 L15.16,18.35 C15.11,18.56 15.08,18.78 15.08,19 C15.08,20.61 16.39,21.92 18,21.92 C19.61,21.92 20.92,20.61 20.92,19 C20.92,17.39 19.61,16.08 18,16.08 Z M18,4 C18.55,4 19,4.45 19,5 C19,5.55 18.55,6 18,6 C17.45,6 17,5.55 17,5 C17,4.45 17.45,4 18,4 Z M6,13 C5.45,13 5,12.55 5,12 C5,11.45 5.45,11 6,11 C6.55,11 7,11.45 7,12 C7,12.55 6.55,13 6,13 Z M18,20.02 C17.45,20.02 17,19.57 17,19.02 C17,18.47 17.45,18.02 18,18.02 C18.55,18.02 19,18.47 19,19.02 C19,19.57 18.55,20.02 18,20.02 Z" />
    <path fill="#FF8D5F" fill-opacity=".5" fill-rule="nonzero" d="M18,6 C17.4477153,6 17,5.55228475 17,5 C17,4.44771525 17.4477153,4 18,4 C18.5522847,4 19,4.44771525 19,5 C19,5.55228475 18.5522847,6 18,6 Z M6,13 C5.44771525,13 5,12.5522847 5,12 C5,11.4477153 5.44771525,11 6,11 C6.55228475,11 7,11.4477153 7,12 C7,12.5522847 6.55228475,13 6,13 Z M18,20 C17.4477153,20 17,19.5522847 17,19 C17,18.4477153 17.4477153,18 18,18 C18.5522847,18 19,18.4477153 19,19 C19,19.5522847 18.5522847,20 18,20 Z" />
  </g>
</symbol><symbol viewBox="0 0 24 24" id="size">
  <g fill="none" transform="translate(3 4)">
    <path fill="#000000" d="M6,1.5 C6,2.33 6.67,3 7.5,3 L11,3 L11,13.5 C11,14.33 11.67,15 12.5,15 C13.33,15 14,14.33 14,13.5 L14,3 L17.5,3 C18.33,3 19,2.33 19,1.5 C19,0.67 18.33,0 17.5,0 L7.5,0 C6.67,0 6,0.67 6,1.5 Z" />
    <path fill="#FF8D5F" fill-opacity=".5" d="M1.5,8 L3,8 L3,13.5 C3,14.33 3.67,15 4.5,15 C5.33,15 6,14.33 6,13.5 L6,8 L7.5,8 C8.33,8 9,7.33 9,6.5 C9,5.67 8.33,5 7.5,5 L1.5,5 C0.67,5 0,5.67 0,6.5 C0,7.33 0.67,8 1.5,8 Z" />
  </g>
</symbol><symbol viewBox="0 0 24 24" id="spaces">
  <g fill="none" transform="translate(2 3)">
    <path fill="#000000" d="M9,17 L18,17 C18.55,17 19,16.55 19,16 C19,15.45 18.55,15 18,15 L9,15 C8.45,15 8,15.45 8,16 C8,16.55 8.45,17 9,17 Z M9,14 L18,14 C18.55,14 19,13.55 19,13 C19,12.45 18.55,12 18,12 L9,12 C8.45,12 8,12.45 8,13 C8,13.55 8.45,14 9,14 Z M9,6 L18,6 C18.55,6 19,5.55 19,5 C19,4.45 18.55,4 18,4 L9,4 C8.45,4 8,4.45 8,5 C8,5.55 8.45,6 9,6 Z M8,2 C8,2.55 8.45,3 9,3 L18,3 C18.55,3 19,2.55 19,2 C19,1.45 18.55,1 18,1 L9,1 C8.45,1 8,1.45 8,2 Z" />
    <path fill="#FF8D5F" fill-opacity=".5" d="M5.29,4 C5.74,4 5.96,3.46 5.64,3.15 L3.35,0.85 C3.15,0.65 2.84,0.65 2.64,0.85 L0.35,3.15 C0.04,3.46 0.26,4 0.71,4 L2,4 L2,14 L0.71,14 C0.26,14 0.04,14.54 0.36,14.85 L2.65,17.14 C2.85,17.34 3.16,17.34 3.36,17.14 L5.65,14.85 C5.96,14.54 5.74,14 5.29,14 L4,14 L4,4 L5.29,4 Z" />
  </g>
</symbol><symbol viewBox="0 0 24 24" id="swap-horizontal">
  <path fill="#FF8D5F" d="M17.65,3.65 C17.84,3.84 17.84,4.16 17.64,4.35 L14.86,7.14 C14.55,7.46 14.01,7.24 14.01,6.79 L14.01,5 L8,5 C7.45,5 7,4.55 7,4 C7,3.45 7.45,3 8,3 L14.02,3 L14.02,1.21 C14.02,0.77 14.56,0.54 14.87,0.86 L17.65,3.65 Z M3.14,6.86 C3.45,6.54 3.99,6.76 3.99,7.21 L3.99,9 L10,9 C10.55,9 11,9.45 11,10 C11,10.55 10.55,11 10,11 L3.99,11 L3.99,12.8 C3.99,13.24 3.45,13.47 3.14,13.15 L0.36,10.36 C0.17,10.16 0.17,9.85 0.36,9.65 L3.14,6.86 Z" transform="translate(3 5)" />
</symbol><symbol viewBox="0 0 24 24" id="swap-vertical">
  <path fill="#FF8D5F" d="M11,14.01 L11,8 C11,7.45 10.55,7 10,7 C9.45,7 9,7.45 9,8 L9,14.01 L7.21,14.01 C6.76,14.01 6.54,14.55 6.86,14.86 L9.65,17.64 C9.85,17.83 10.16,17.83 10.36,17.64 L13.15,14.86 C13.47,14.55 13.24,14.01 12.8,14.01 L11,14.01 Z M3.65,0.35 L0.86,3.14 C0.54,3.45 0.76,3.99 1.21,3.99 L3,3.99 L3,10 C3,10.55 3.45,11 4,11 C4.55,11 5,10.55 5,10 L5,3.99 L6.79,3.99 C7.24,3.99 7.46,3.45 7.14,3.14 L4.35,0.35 C4.16,0.16 3.84,0.16 3.65,0.35 Z" transform="translate(5 3)" />
</symbol><symbol viewBox="0 0 24 24" id="typo">
  <g fill="none" transform="translate(5 4)">
    <path fill="#000000" d="M4.5,8.8 L9.5,8.8 L10.16,10.4 C10.31,10.76 10.66,11 11.05,11 C11.74,11 12.2,10.29 11.93,9.66 L8.05,0.69 C7.87,0.27 7.46,0 7,0 C6.54,0 6.13,0.27 5.95,0.69 L2.07,9.66 C1.8,10.29 2.27,11 2.96,11 C3.35,11 3.7,10.76 3.85,10.4 L4.5,8.8 Z M7,1.98 L8.87,7 L5.13,7 L7,1.98 Z" />
    <path fill="#FF8D5F" fill-opacity=".5" d="M0,14 C0,14.55 0.45,15 1,15 L13,15 C13.55,15 14,14.55 14,14 C14,13.45 13.55,13 13,13 L1,13 C0.45,13 0,13.45 0,14 Z" />
  </g>
</symbol><symbol viewBox="0 0 24 24" id="user">
  <g fill="none" fill-rule="evenodd">
    <path fill="#FF8D5F" fill-opacity=".5" fill-rule="nonzero" d="M12 10C13.1054305 10 14 9.1054305 14 8 14 6.8945695 13.1054305 6 12 6 10.8945695 6 10 6.8945695 10 8 10 9.1054305 10.8945695 10 12 10zM6 18L18 18C18 17.342215 14.6494894 16 12 16 9.35051057 16 6 17.342215 6 18z" />
    <path fill="#000000" fill-rule="nonzero" d="M12,14 C14.67,14 20,15.34 20,18 L20,19 C20,19.55 19.55,20 19,20 L5,20 C4.45,20 4,19.55 4,19 L4,18 C4,15.34 9.33,14 12,14 Z M12,12 C9.79,12 8,10.21 8,8 C8,5.79 9.79,4 12,4 C14.21,4 16,5.79 16,8 C16,10.21 14.21,12 12,12 Z M12,10 C13.1054305,10 14,9.1054305 14,8 C14,6.8945695 13.1054305,6 12,6 C10.8945695,6 10,6.8945695 10,8 C10,9.1054305 10.8945695,10 12,10 Z M6,18 L18,18 C18,17.342215 14.6494894,16 12,16 C9.35051057,16 6,17.342215 6,18 Z" />
  </g>
</symbol></defs></svg>